<?xml version="1.0" encoding="UTF-8" standalone="no"?>
<svg
   xmlns:dc="http://purl.org/dc/elements/1.1/"
   xmlns:cc="http://creativecommons.org/ns#"
   xmlns:rdf="http://www.w3.org/1999/02/22-rdf-syntax-ns#"
   xmlns:svg="http://www.w3.org/2000/svg"
   xmlns="http://www.w3.org/2000/svg"
   viewBox="0 0 785.33331 785.33331"
   height="785.33331"
   width="785.33331"
   xml:space="preserve"
   id="svg2"
   version="1.1"><metadata
     id="metadata8"><rdf:RDF><cc:Work
         rdf:about=""><dc:format>image/svg+xml</dc:format><dc:type
           rdf:resource="http://purl.org/dc/dcmitype/StillImage" /></cc:Work></rdf:RDF></metadata><defs
     id="defs6"><linearGradient
       id="linearGradient32"
       spreadMethod="pad"
       gradientTransform="matrix(-110.90228,-2.1534421,-2.1534421,110.90228,355.69025,299.09424)"
       gradientUnits="userSpaceOnUse"
       y2="0"
       x2="1"
       y1="0"
       x1="0"><stop
         id="stop24"
         offset="0"
         style="stop-opacity:1;stop-color:#e73f32" /><stop
         id="stop26"
         offset="0.00000094"
         style="stop-opacity:1;stop-color:#e73f32" /><stop
         id="stop28"
         offset="0.993298"
         style="stop-opacity:1;stop-color:#0537c6" /><stop
         id="stop30"
         offset="1"
         style="stop-opacity:1;stop-color:#0537c6" /></linearGradient><linearGradient
       id="linearGradient56"
       spreadMethod="pad"
       gradientTransform="matrix(-110.90228,-2.1534421,-2.1534421,110.90228,354.41122,364.9635)"
       gradientUnits="userSpaceOnUse"
       y2="0"
       x2="1"
       y1="0"
       x1="0"><stop
         id="stop48"
         offset="0"
         style="stop-opacity:1;stop-color:#e73f32" /><stop
         id="stop50"
         offset="0.00000094"
         style="stop-opacity:1;stop-color:#e73f32" /><stop
         id="stop52"
         offset="0.993298"
         style="stop-opacity:1;stop-color:#0537c6" /><stop
         id="stop54"
         offset="1"
         style="stop-opacity:1;stop-color:#0537c6" /></linearGradient><linearGradient
       id="linearGradient80"
       spreadMethod="pad"
       gradientTransform="matrix(-110.90228,-2.1534421,-2.1534421,110.90228,355.66953,300.16101)"
       gradientUnits="userSpaceOnUse"
       y2="0"
       x2="1"
       y1="0"
       x1="0"><stop
         id="stop72"
         offset="0"
         style="stop-opacity:1;stop-color:#e73f32" /><stop
         id="stop74"
         offset="0.00000094"
         style="stop-opacity:1;stop-color:#e73f32" /><stop
         id="stop76"
         offset="0.993298"
         style="stop-opacity:1;stop-color:#0537c6" /><stop
         id="stop78"
         offset="1"
         style="stop-opacity:1;stop-color:#0537c6" /></linearGradient><linearGradient
       id="linearGradient104"
       spreadMethod="pad"
       gradientTransform="matrix(-110.90228,-2.1534421,-2.1534421,110.90228,354.40158,365.46033)"
       gradientUnits="userSpaceOnUse"
       y2="0"
       x2="1"
       y1="0"
       x1="0"><stop
         id="stop96"
         offset="0"
         style="stop-opacity:1;stop-color:#e73f32" /><stop
         id="stop98"
         offset="0.00000094"
         style="stop-opacity:1;stop-color:#e73f32" /><stop
         id="stop100"
         offset="0.993298"
         style="stop-opacity:1;stop-color:#0537c6" /><stop
         id="stop102"
         offset="1"
         style="stop-opacity:1;stop-color:#0537c6" /></linearGradient><linearGradient
       id="linearGradient128"
       spreadMethod="pad"
       gradientTransform="matrix(-110.90228,-2.1534421,-2.1534421,110.90228,356.7048,246.84482)"
       gradientUnits="userSpaceOnUse"
       y2="0"
       x2="1"
       y1="0"
       x1="0"><stop
         id="stop120"
         offset="0"
         style="stop-opacity:1;stop-color:#e73f32" /><stop
         id="stop122"
         offset="0.00000094"
         style="stop-opacity:1;stop-color:#e73f32" /><stop
         id="stop124"
         offset="0.993298"
         style="stop-opacity:1;stop-color:#0537c6" /><stop
         id="stop126"
         offset="1"
         style="stop-opacity:1;stop-color:#0537c6" /></linearGradient><linearGradient
       id="linearGradient152"
       spreadMethod="pad"
       gradientTransform="matrix(-110.90228,-2.1534421,-2.1534421,110.90228,356.72678,245.71393)"
       gradientUnits="userSpaceOnUse"
       y2="0"
       x2="1"
       y1="0"
       x1="0"><stop
         id="stop144"
         offset="0"
         style="stop-opacity:1;stop-color:#e73f32" /><stop
         id="stop146"
         offset="0.00000094"
         style="stop-opacity:1;stop-color:#e73f32" /><stop
         id="stop148"
         offset="0.993298"
         style="stop-opacity:1;stop-color:#0537c6" /><stop
         id="stop150"
         offset="1"
         style="stop-opacity:1;stop-color:#0537c6" /></linearGradient><linearGradient
       id="linearGradient176"
       spreadMethod="pad"
       gradientTransform="matrix(-110.90228,-2.1534421,-2.1534421,110.90228,356.70911,246.62277)"
       gradientUnits="userSpaceOnUse"
       y2="0"
       x2="1"
       y1="0"
       x1="0"><stop
         id="stop168"
         offset="0"
         style="stop-opacity:1;stop-color:#e73f32" /><stop
         id="stop170"
         offset="0.00000094"
         style="stop-opacity:1;stop-color:#e73f32" /><stop
         id="stop172"
         offset="0.993298"
         style="stop-opacity:1;stop-color:#0537c6" /><stop
         id="stop174"
         offset="1"
         style="stop-opacity:1;stop-color:#0537c6" /></linearGradient><linearGradient
       id="linearGradient200"
       spreadMethod="pad"
       gradientTransform="matrix(-110.90228,-2.1534421,-2.1534421,110.90228,356.71017,246.56868)"
       gradientUnits="userSpaceOnUse"
       y2="0"
       x2="1"
       y1="0"
       x1="0"><stop
         id="stop192"
         offset="0"
         style="stop-opacity:1;stop-color:#e73f32" /><stop
         id="stop194"
         offset="0.00000094"
         style="stop-opacity:1;stop-color:#e73f32" /><stop
         id="stop196"
         offset="0.993298"
         style="stop-opacity:1;stop-color:#0537c6" /><stop
         id="stop198"
         offset="1"
         style="stop-opacity:1;stop-color:#0537c6" /></linearGradient><linearGradient
       id="linearGradient224"
       spreadMethod="pad"
       gradientTransform="matrix(-110.90228,-2.1534421,-2.1534421,110.90228,356.73212,245.43779)"
       gradientUnits="userSpaceOnUse"
       y2="0"
       x2="1"
       y1="0"
       x1="0"><stop
         id="stop216"
         offset="0"
         style="stop-opacity:1;stop-color:#e73f32" /><stop
         id="stop218"
         offset="0.00000094"
         style="stop-opacity:1;stop-color:#e73f32" /><stop
         id="stop220"
         offset="0.993298"
         style="stop-opacity:1;stop-color:#0537c6" /><stop
         id="stop222"
         offset="1"
         style="stop-opacity:1;stop-color:#0537c6" /></linearGradient><linearGradient
       id="linearGradient248"
       spreadMethod="pad"
       gradientTransform="matrix(-110.90228,-2.1534421,-2.1534421,110.90228,356.71411,246.3652)"
       gradientUnits="userSpaceOnUse"
       y2="0"
       x2="1"
       y1="0"
       x1="0"><stop
         id="stop240"
         offset="0"
         style="stop-opacity:1;stop-color:#e73f32" /><stop
         id="stop242"
         offset="0.00000094"
         style="stop-opacity:1;stop-color:#e73f32" /><stop
         id="stop244"
         offset="0.993298"
         style="stop-opacity:1;stop-color:#0537c6" /><stop
         id="stop246"
         offset="1"
         style="stop-opacity:1;stop-color:#0537c6" /></linearGradient><linearGradient
       id="linearGradient272"
       spreadMethod="pad"
       gradientTransform="matrix(-110.90228,-2.1534421,-2.1534421,110.90228,356.72101,246.01041)"
       gradientUnits="userSpaceOnUse"
       y2="0"
       x2="1"
       y1="0"
       x1="0"><stop
         id="stop264"
         offset="0"
         style="stop-opacity:1;stop-color:#e73f32" /><stop
         id="stop266"
         offset="0.00000094"
         style="stop-opacity:1;stop-color:#e73f32" /><stop
         id="stop268"
         offset="0.993298"
         style="stop-opacity:1;stop-color:#0537c6" /><stop
         id="stop270"
         offset="1"
         style="stop-opacity:1;stop-color:#0537c6" /></linearGradient><linearGradient
       id="linearGradient296"
       spreadMethod="pad"
       gradientTransform="matrix(-110.90228,-2.1534421,-2.1534421,110.90228,356.75269,244.37915)"
       gradientUnits="userSpaceOnUse"
       y2="0"
       x2="1"
       y1="0"
       x1="0"><stop
         id="stop288"
         offset="0"
         style="stop-opacity:1;stop-color:#e73f32" /><stop
         id="stop290"
         offset="0.00000094"
         style="stop-opacity:1;stop-color:#e73f32" /><stop
         id="stop292"
         offset="0.993298"
         style="stop-opacity:1;stop-color:#0537c6" /><stop
         id="stop294"
         offset="1"
         style="stop-opacity:1;stop-color:#0537c6" /></linearGradient><linearGradient
       id="linearGradient320"
       spreadMethod="pad"
       gradientTransform="matrix(-110.90228,-2.1534421,-2.1534421,110.90228,356.72043,246.04039)"
       gradientUnits="userSpaceOnUse"
       y2="0"
       x2="1"
       y1="0"
       x1="0"><stop
         id="stop312"
         offset="0"
         style="stop-opacity:1;stop-color:#e73f32" /><stop
         id="stop314"
         offset="0.00000094"
         style="stop-opacity:1;stop-color:#e73f32" /><stop
         id="stop316"
         offset="0.993298"
         style="stop-opacity:1;stop-color:#0537c6" /><stop
         id="stop318"
         offset="1"
         style="stop-opacity:1;stop-color:#0537c6" /></linearGradient><linearGradient
       id="linearGradient344"
       spreadMethod="pad"
       gradientTransform="matrix(-110.90228,-2.1534421,-2.1534421,110.90228,356.7449,244.77991)"
       gradientUnits="userSpaceOnUse"
       y2="0"
       x2="1"
       y1="0"
       x1="0"><stop
         id="stop336"
         offset="0"
         style="stop-opacity:1;stop-color:#e73f32" /><stop
         id="stop338"
         offset="0.00000094"
         style="stop-opacity:1;stop-color:#e73f32" /><stop
         id="stop340"
         offset="0.993298"
         style="stop-opacity:1;stop-color:#0537c6" /><stop
         id="stop342"
         offset="1"
         style="stop-opacity:1;stop-color:#0537c6" /></linearGradient><linearGradient
       id="linearGradient368"
       spreadMethod="pad"
       gradientTransform="matrix(-110.90228,-2.1534421,-2.1534421,110.90228,356.72501,245.80373)"
       gradientUnits="userSpaceOnUse"
       y2="0"
       x2="1"
       y1="0"
       x1="0"><stop
         id="stop360"
         offset="0"
         style="stop-opacity:1;stop-color:#e73f32" /><stop
         id="stop362"
         offset="0.00000094"
         style="stop-opacity:1;stop-color:#e73f32" /><stop
         id="stop364"
         offset="0.993298"
         style="stop-opacity:1;stop-color:#0537c6" /><stop
         id="stop366"
         offset="1"
         style="stop-opacity:1;stop-color:#0537c6" /></linearGradient><linearGradient
       id="linearGradient392"
       spreadMethod="pad"
       gradientTransform="matrix(-110.90228,-2.1534421,-2.1534421,110.90228,356.72681,245.71246)"
       gradientUnits="userSpaceOnUse"
       y2="0"
       x2="1"
       y1="0"
       x1="0"><stop
         id="stop384"
         offset="0"
         style="stop-opacity:1;stop-color:#e73f32" /><stop
         id="stop386"
         offset="0.00000094"
         style="stop-opacity:1;stop-color:#e73f32" /><stop
         id="stop388"
         offset="0.993298"
         style="stop-opacity:1;stop-color:#0537c6" /><stop
         id="stop390"
         offset="1"
         style="stop-opacity:1;stop-color:#0537c6" /></linearGradient><linearGradient
       id="linearGradient416"
       spreadMethod="pad"
       gradientTransform="matrix(-110.90228,-2.1534421,-2.1534421,110.90228,356.72784,245.65837)"
       gradientUnits="userSpaceOnUse"
       y2="0"
       x2="1"
       y1="0"
       x1="0"><stop
         id="stop408"
         offset="0"
         style="stop-opacity:1;stop-color:#e73f32" /><stop
         id="stop410"
         offset="0.00000094"
         style="stop-opacity:1;stop-color:#e73f32" /><stop
         id="stop412"
         offset="0.993298"
         style="stop-opacity:1;stop-color:#0537c6" /><stop
         id="stop414"
         offset="1"
         style="stop-opacity:1;stop-color:#0537c6" /></linearGradient><linearGradient
       id="linearGradient440"
       spreadMethod="pad"
       gradientTransform="matrix(-110.90228,-2.1534421,-2.1534421,110.90228,356.72925,245.58569)"
       gradientUnits="userSpaceOnUse"
       y2="0"
       x2="1"
       y1="0"
       x1="0"><stop
         id="stop432"
         offset="0"
         style="stop-opacity:1;stop-color:#e73f32" /><stop
         id="stop434"
         offset="0.00000094"
         style="stop-opacity:1;stop-color:#e73f32" /><stop
         id="stop436"
         offset="0.993298"
         style="stop-opacity:1;stop-color:#0537c6" /><stop
         id="stop438"
         offset="1"
         style="stop-opacity:1;stop-color:#0537c6" /></linearGradient><linearGradient
       id="linearGradient464"
       spreadMethod="pad"
       gradientTransform="matrix(-110.90228,-2.1534421,-2.1534421,110.90228,356.73065,245.51302)"
       gradientUnits="userSpaceOnUse"
       y2="0"
       x2="1"
       y1="0"
       x1="0"><stop
         id="stop456"
         offset="0"
         style="stop-opacity:1;stop-color:#e73f32" /><stop
         id="stop458"
         offset="0.00000094"
         style="stop-opacity:1;stop-color:#e73f32" /><stop
         id="stop460"
         offset="0.993298"
         style="stop-opacity:1;stop-color:#0537c6" /><stop
         id="stop462"
         offset="1"
         style="stop-opacity:1;stop-color:#0537c6" /></linearGradient><linearGradient
       id="linearGradient488"
       spreadMethod="pad"
       gradientTransform="matrix(-110.90228,-2.1534421,-2.1534421,110.90228,356.75333,244.34538)"
       gradientUnits="userSpaceOnUse"
       y2="0"
       x2="1"
       y1="0"
       x1="0"><stop
         id="stop480"
         offset="0"
         style="stop-opacity:1;stop-color:#e73f32" /><stop
         id="stop482"
         offset="0.00000094"
         style="stop-opacity:1;stop-color:#e73f32" /><stop
         id="stop484"
         offset="0.993298"
         style="stop-opacity:1;stop-color:#0537c6" /><stop
         id="stop486"
         offset="1"
         style="stop-opacity:1;stop-color:#0537c6" /></linearGradient><linearGradient
       id="linearGradient512"
       spreadMethod="pad"
       gradientTransform="matrix(-110.90228,-2.1534421,-2.1534421,110.90228,356.75748,244.13211)"
       gradientUnits="userSpaceOnUse"
       y2="0"
       x2="1"
       y1="0"
       x1="0"><stop
         id="stop504"
         offset="0"
         style="stop-opacity:1;stop-color:#e73f32" /><stop
         id="stop506"
         offset="0.00000094"
         style="stop-opacity:1;stop-color:#e73f32" /><stop
         id="stop508"
         offset="0.993298"
         style="stop-opacity:1;stop-color:#0537c6" /><stop
         id="stop510"
         offset="1"
         style="stop-opacity:1;stop-color:#0537c6" /></linearGradient><linearGradient
       id="linearGradient536"
       spreadMethod="pad"
       gradientTransform="matrix(-110.90228,-2.1534421,-2.1534421,110.90228,356.75912,244.04788)"
       gradientUnits="userSpaceOnUse"
       y2="0"
       x2="1"
       y1="0"
       x1="0"><stop
         id="stop528"
         offset="0"
         style="stop-opacity:1;stop-color:#e73f32" /><stop
         id="stop530"
         offset="0.00000094"
         style="stop-opacity:1;stop-color:#e73f32" /><stop
         id="stop532"
         offset="0.993298"
         style="stop-opacity:1;stop-color:#0537c6" /><stop
         id="stop534"
         offset="1"
         style="stop-opacity:1;stop-color:#0537c6" /></linearGradient><linearGradient
       id="linearGradient560"
       spreadMethod="pad"
       gradientTransform="matrix(-110.90228,-2.1534421,-2.1534421,110.90228,356.74658,244.69316)"
       gradientUnits="userSpaceOnUse"
       y2="0"
       x2="1"
       y1="0"
       x1="0"><stop
         id="stop552"
         offset="0"
         style="stop-opacity:1;stop-color:#e73f32" /><stop
         id="stop554"
         offset="0.00000094"
         style="stop-opacity:1;stop-color:#e73f32" /><stop
         id="stop556"
         offset="0.993298"
         style="stop-opacity:1;stop-color:#0537c6" /><stop
         id="stop558"
         offset="1"
         style="stop-opacity:1;stop-color:#0537c6" /></linearGradient><linearGradient
       id="linearGradient584"
       spreadMethod="pad"
       gradientTransform="matrix(-110.90228,-2.1534421,-2.1534421,110.90228,356.74429,244.81042)"
       gradientUnits="userSpaceOnUse"
       y2="0"
       x2="1"
       y1="0"
       x1="0"><stop
         id="stop576"
         offset="0"
         style="stop-opacity:1;stop-color:#e73f32" /><stop
         id="stop578"
         offset="0.00000094"
         style="stop-opacity:1;stop-color:#e73f32" /><stop
         id="stop580"
         offset="0.993298"
         style="stop-opacity:1;stop-color:#0537c6" /><stop
         id="stop582"
         offset="1"
         style="stop-opacity:1;stop-color:#0537c6" /></linearGradient><linearGradient
       id="linearGradient608"
       spreadMethod="pad"
       gradientTransform="matrix(-110.90228,-2.1534421,-2.1534421,110.90228,356.74661,244.69238)"
       gradientUnits="userSpaceOnUse"
       y2="0"
       x2="1"
       y1="0"
       x1="0"><stop
         id="stop600"
         offset="0"
         style="stop-opacity:1;stop-color:#e73f32" /><stop
         id="stop602"
         offset="0.00000094"
         style="stop-opacity:1;stop-color:#e73f32" /><stop
         id="stop604"
         offset="0.993298"
         style="stop-opacity:1;stop-color:#0537c6" /><stop
         id="stop606"
         offset="1"
         style="stop-opacity:1;stop-color:#0537c6" /></linearGradient><linearGradient
       id="linearGradient632"
       spreadMethod="pad"
       gradientTransform="matrix(-110.90228,-2.1534421,-2.1534421,110.90228,356.76947,243.51492)"
       gradientUnits="userSpaceOnUse"
       y2="0"
       x2="1"
       y1="0"
       x1="0"><stop
         id="stop624"
         offset="0"
         style="stop-opacity:1;stop-color:#e73f32" /><stop
         id="stop626"
         offset="0.00000094"
         style="stop-opacity:1;stop-color:#e73f32" /><stop
         id="stop628"
         offset="0.993298"
         style="stop-opacity:1;stop-color:#0537c6" /><stop
         id="stop630"
         offset="1"
         style="stop-opacity:1;stop-color:#0537c6" /></linearGradient><linearGradient
       id="linearGradient656"
       spreadMethod="pad"
       gradientTransform="matrix(-110.90228,-2.1534421,-2.1534421,110.90228,356.75244,244.39098)"
       gradientUnits="userSpaceOnUse"
       y2="0"
       x2="1"
       y1="0"
       x1="0"><stop
         id="stop648"
         offset="0"
         style="stop-opacity:1;stop-color:#e73f32" /><stop
         id="stop650"
         offset="0.00000094"
         style="stop-opacity:1;stop-color:#e73f32" /><stop
         id="stop652"
         offset="0.993298"
         style="stop-opacity:1;stop-color:#0537c6" /><stop
         id="stop654"
         offset="1"
         style="stop-opacity:1;stop-color:#0537c6" /></linearGradient><linearGradient
       id="linearGradient680"
       spreadMethod="pad"
       gradientTransform="matrix(-110.90228,-2.1534421,-2.1534421,110.90228,356.77435,243.26242)"
       gradientUnits="userSpaceOnUse"
       y2="0"
       x2="1"
       y1="0"
       x1="0"><stop
         id="stop672"
         offset="0"
         style="stop-opacity:1;stop-color:#e73f32" /><stop
         id="stop674"
         offset="0.00000094"
         style="stop-opacity:1;stop-color:#e73f32" /><stop
         id="stop676"
         offset="0.993298"
         style="stop-opacity:1;stop-color:#0537c6" /><stop
         id="stop678"
         offset="1"
         style="stop-opacity:1;stop-color:#0537c6" /></linearGradient><linearGradient
       id="linearGradient704"
       spreadMethod="pad"
       gradientTransform="matrix(-110.90228,-2.1534421,-2.1534421,110.90228,356.75562,244.22733)"
       gradientUnits="userSpaceOnUse"
       y2="0"
       x2="1"
       y1="0"
       x1="0"><stop
         id="stop696"
         offset="0"
         style="stop-opacity:1;stop-color:#e73f32" /><stop
         id="stop698"
         offset="0.00000094"
         style="stop-opacity:1;stop-color:#e73f32" /><stop
         id="stop700"
         offset="0.993298"
         style="stop-opacity:1;stop-color:#0537c6" /><stop
         id="stop702"
         offset="1"
         style="stop-opacity:1;stop-color:#0537c6" /></linearGradient><clipPath
       id="clipPath714"
       clipPathUnits="userSpaceOnUse"><path
         id="path712"
         d="M 0,589 H 589 V 0 H 0 Z" /></clipPath></defs><g
     transform="matrix(1.3333333,0,0,-1.3333333,0,785.33333)"
     id="g10"><g
       id="g12"><g
         id="g14"><g
           id="g20"><g
             id="g22"><path
               id="path34"
               style="fill:url(#linearGradient32);stroke:none"
               d="m 311.375,339.368 c -16.371,-0.154 -32.746,-0.004 -49.119,-0.003 v 0 c -1.763,0 -3.525,-0.242 -5.19,-0.364 v 0 -82.156 h 90.355 c 0,16.45 0.067,32.244 -0.142,48.034 v 0 c -0.015,1.134 -2.045,3.204 -3.157,3.215 v 0 c -18.416,0.197 -36.838,0.182 -55.255,0.01 v 0 c -1.119,-0.01 -3.112,-1.661 -3.182,-2.657 v 0 c -0.337,-4.759 -0.151,-9.553 -0.151,-15.032 v 0 c 11.578,0 22.513,0.104 33.444,-0.028 v 0 c 1.648,-0.021 3.044,0.007 4.226,0.034 v 0 c 7.393,0.173 6.429,0.346 6.601,-11.14 v 0 c 0.053,-3.543 -1.103,-4.977 -4.804,-4.943 v 0 c -15.255,0.14 -30.514,0.144 -45.77,0 v 0 c -3.674,-0.035 -4.836,1.289 -4.79,4.884 v 0 c 0.161,12.464 0.194,24.933 -0.008,37.396 v 0 c -0.065,4.078 1.609,5.042 5.31,4.956 v 0 c 8.369,-0.198 16.744,-0.061 25.117,-0.06 v 0 c 12.538,0 12.315,0.003 12.421,12.34 v 0 c 0.04,4.575 -1.69,5.516 -5.662,5.516 v 0 c -0.08,0 -0.162,-10e-4 -0.244,-0.002" /></g></g></g></g><g
       id="g36"><g
         id="g38"><g
           id="g44"><g
             id="g46"><path
               id="path58"
               style="fill:url(#linearGradient56);stroke:none"
               d="m 342.273,372.763 c -10.953,-0.116 -21.907,-0.099 -32.861,-0.081 v 0 c -4.108,0.006 -8.215,0.012 -12.322,0.012 v 0 c -12.458,0 -24.917,-0.008 -37.374,10e-4 v 0 c -2.322,0.003 -4.576,0.115 -4.505,-3.286 v 0 c 0.097,-4.606 0.025,-9.216 0.025,-14.168 v 0 h 92.207 c 0,4.457 -0.229,8.528 0.064,12.563 v 0 c 0.292,4.011 -1.437,4.96 -5.008,4.96 v 0 c -0.074,0 -0.15,0 -0.226,-0.001" /></g></g></g></g><g
       id="g60"><g
         id="g62"><g
           id="g68"><g
             id="g70"><path
               id="path82"
               style="fill:url(#linearGradient80);stroke:none"
               d="m 231.779,333.915 c 0.168,-21.715 0.079,-43.433 0.079,-65.15 v 0 c 0,-12.393 0.003,-12.18 12.249,-12.324 v 0 c 4.515,-0.054 5.632,1.461 5.602,5.737 v 0 c -0.169,23.757 -0.072,47.516 -0.091,71.275 v 0 c -0.001,1.637 -0.203,3.274 -0.371,5.829 v 0 c -4.45,0 -8.344,-0.258 -12.189,0.069 v 0 c -0.368,0.032 -0.712,0.047 -1.034,0.047 v 0 c -3.427,0 -4.274,-1.79 -4.245,-5.483" /></g></g></g></g><g
       id="g84"><g
         id="g86"><g
           id="g92"><g
             id="g94"><path
               id="path106"
               style="fill:url(#linearGradient104);stroke:none"
               d="m 231.831,363.613 c 0.138,-10.755 -1.251,-9.801 8.071,-9.764 v 0 c 1.263,0.005 2.364,-0.012 3.32,-0.029 v 0 c 7.335,-0.134 6.288,-0.266 6.412,9.793 v 0 c -0.093,9.198 0.853,9.171 -6.464,9.145 v 0 c -0.694,-0.002 -1.462,-0.005 -2.312,0 v 0 c -0.621,0.004 -1.2,0.008 -1.74,0.008 v 0 c -7.343,0 -7.397,-0.632 -7.287,-9.153" /></g></g></g></g><g
       id="g108"><g
         id="g110"><g
           id="g116"><g
             id="g118"><path
               id="path130"
               style="fill:url(#linearGradient128);stroke:none"
               d="m 220.992,238.847 h 2.48 v 10.773 h -2.48 z" /></g></g></g></g><g
       id="g132"><g
         id="g134"><g
           id="g140"><g
             id="g142"><path
               id="path154"
               style="fill:url(#linearGradient152);stroke:none"
               d="m 227.599,247.336 c -0.281,-0.223 -0.525,-0.5 -0.73,-0.83 v 0 0.955 h -2.237 v -8.614 h 2.317 v 5.89 c 0,0.171 0.023,0.333 0.071,0.488 v 0 c 0.088,0.222 0.239,0.335 0.454,0.335 v 0 c 0.232,0 0.391,-0.099 0.473,-0.296 v 0 c 0.037,-0.071 0.054,-0.246 0.054,-0.527 v 0 -5.89 h 2.316 v 6.942 c 0,0.549 -0.138,0.996 -0.415,1.337 v 0 c -0.289,0.342 -0.703,0.513 -1.244,0.513 v 0 c -0.394,0 -0.747,-0.101 -1.059,-0.303" /></g></g></g></g><g
       id="g156"><g
         id="g158"><g
           id="g164"><g
             id="g166"><path
               id="path178"
               style="fill:url(#linearGradient176);stroke:none"
               d="m 233.561,249.62 c -0.68,0 -1.156,-0.082 -1.429,-0.244 v 0 c -0.394,-0.236 -0.592,-0.701 -0.592,-1.389 v 0 -0.618 h -0.552 v -1.672 h 0.552 v -6.85 h 2.323 v 6.85 h 0.58 v 1.672 h -0.665 v 0.308 c 0,0.287 0.145,0.43 0.434,0.43 v 0 h 0.231 v 1.513 z" /></g></g></g></g><g
       id="g180"><g
         id="g182"><g
           id="g188"><g
             id="g190"><path
               id="path202"
               style="fill:url(#linearGradient200);stroke:none"
               d="m 235.299,248.027 h 2.322 v 1.593 h -2.322 z m 0,-9.18 h 2.322 v 8.614 h -2.322 z" /></g></g></g></g><g
       id="g204"><g
         id="g206"><g
           id="g212"><g
             id="g214"><path
               id="path226"
               style="fill:url(#linearGradient224);stroke:none"
               d="m 241.826,247.336 c -0.281,-0.223 -0.524,-0.5 -0.73,-0.83 v 0 0.955 h -2.238 v -8.614 h 2.317 v 5.89 c 0,0.171 0.024,0.333 0.072,0.488 v 0 c 0.087,0.222 0.239,0.335 0.453,0.335 v 0 c 0.234,0 0.391,-0.099 0.475,-0.296 v 0 c 0.035,-0.071 0.053,-0.246 0.053,-0.527 v 0 -5.89 h 2.316 v 6.942 c 0,0.549 -0.139,0.996 -0.414,1.337 v 0 c -0.29,0.342 -0.705,0.513 -1.245,0.513 v 0 c -0.394,0 -0.748,-0.101 -1.059,-0.303" /></g></g></g></g><g
       id="g228"><g
         id="g230"><g
           id="g236"><g
             id="g238"><path
               id="path250"
               style="fill:url(#linearGradient248);stroke:none"
               d="m 245.781,248.027 h 2.323 v 1.593 h -2.323 z m 0,-9.18 h 2.323 v 8.614 h -2.323 z" /></g></g></g></g><g
       id="g252"><g
         id="g254"><g
           id="g260"><g
             id="g262"><path
               id="path274"
               style="fill:url(#linearGradient272);stroke:none"
               d="m 249.512,249.237 v -1.868 h -0.579 v -1.672 h 0.579 v -5.474 c 0,-0.62 0.175,-1.044 0.526,-1.277 v 0 c 0.272,-0.18 0.7,-0.27 1.283,-0.27 v 0 h 1.119 v 1.752 h -0.297 c -0.153,0 -0.243,0.056 -0.269,0.171 v 0 l -0.04,0.486 v 4.612 h 0.58 v 1.672 h -0.58 v 1.868 z" /></g></g></g></g><g
       id="g276"><g
         id="g278"><g
           id="g284"><g
             id="g286"><path
               id="path298"
               style="fill:url(#linearGradient296);stroke:none"
               d="m 256.198,247.461 -0.62,-6.054 -0.578,6.054 h -2.376 l 1.422,-7.225 0.079,-0.322 c 0.017,-0.035 0.026,-0.13 0.026,-0.283 v 0 l 0.04,-0.362 c -0.026,-0.136 -0.063,-0.222 -0.106,-0.257 v 0 c -0.048,-0.034 -0.143,-0.052 -0.283,-0.052 v 0 h -0.526 v -1.672 h 1.079 c 0.232,0 0.451,0.013 0.658,0.039 v 0 c 0.197,0.027 0.364,0.058 0.501,0.093 v 0 c 0.302,0.083 0.547,0.219 0.736,0.407 v 0 c 0.246,0.242 0.421,0.556 0.527,0.941 v 0 c 0.048,0.079 0.086,0.205 0.111,0.375 v 0 l 0.079,0.435 1.508,7.883 z" /></g></g></g></g><g
       id="g300"><g
         id="g302"><g
           id="g308"><g
             id="g310"><path
               id="path322"
               style="fill:url(#linearGradient320);stroke:none"
               d="m 262.435,249.62 v -10.773 h 2.482 v 4.475 h 2.414 v 2.079 h -2.414 v 2.139 h 2.698 v 2.08 z" /></g></g></g></g><g
       id="g324"><g
         id="g326"><g
           id="g332"><g
             id="g334"><path
               id="path346"
               style="fill:url(#linearGradient344);stroke:none"
               d="m 271.155,247.461 v -5.889 c 0,-0.171 -0.023,-0.333 -0.066,-0.487 v 0 c -0.093,-0.223 -0.247,-0.336 -0.461,-0.336 v 0 c -0.233,0 -0.389,0.1 -0.467,0.297 v 0 c -0.04,0.069 -0.059,0.245 -0.059,0.526 v 0 5.889 h -2.316 v -6.941 c 0,-0.531 0.144,-0.973 0.434,-1.323 v 0 c 0.276,-0.348 0.684,-0.521 1.224,-0.521 v 0 c 0.412,0 0.758,0.09 1.039,0.27 v 0 c 0.268,0.197 0.518,0.485 0.75,0.862 v 0 -0.961 h 2.237 v 8.614 z" /></g></g></g></g><g
       id="g348"><g
         id="g350"><g
           id="g356"><g
             id="g358"><path
               id="path370"
               style="fill:url(#linearGradient368);stroke:none"
               d="m 274.708,238.847 h 2.323 v 10.773 h -2.323 z" /></g></g></g></g><g
       id="g372"><g
         id="g374"><g
           id="g380"><g
             id="g382"><path
               id="path394"
               style="fill:url(#linearGradient392);stroke:none"
               d="m 280.459,249.62 c -0.68,0 -1.156,-0.082 -1.428,-0.244 v 0 c -0.395,-0.236 -0.592,-0.701 -0.592,-1.389 v 0 -0.618 h -0.553 v -1.672 h 0.553 v -6.85 h 2.322 v 6.85 h 0.58 v 1.672 h -0.664 v 0.308 c 0,0.287 0.144,0.43 0.434,0.43 v 0 h 0.23 v 1.513 z" /></g></g></g></g><g
       id="g396"><g
         id="g398"><g
           id="g404"><g
             id="g406"><path
               id="path418"
               style="fill:url(#linearGradient416);stroke:none"
               d="m 282.196,248.027 h 2.323 v 1.593 h -2.323 z m 0,-9.18 h 2.323 v 8.614 h -2.323 z" /></g></g></g></g><g
       id="g420"><g
         id="g422"><g
           id="g428"><g
             id="g430"><path
               id="path442"
               style="fill:url(#linearGradient440);stroke:none"
               d="m 285.941,238.847 h 2.323 v 10.773 h -2.323 z" /></g></g></g></g><g
       id="g444"><g
         id="g446"><g
           id="g452"><g
             id="g454"><path
               id="path466"
               style="fill:url(#linearGradient464);stroke:none"
               d="m 289.685,238.847 h 2.323 v 10.773 h -2.323 z" /></g></g></g></g><g
       id="g468"><g
         id="g470"><g
           id="g476"><g
             id="g478"><path
               id="path490"
               style="fill:url(#linearGradient488);stroke:none"
               d="m 299.714,247.309 c -0.229,-0.196 -0.46,-0.501 -0.692,-0.913 v 0 c -0.087,0.438 -0.276,0.758 -0.566,0.96 v 0 c -0.285,0.189 -0.629,0.283 -1.033,0.283 v 0 c -0.452,0 -0.82,-0.109 -1.105,-0.33 v 0 c -0.255,-0.223 -0.498,-0.528 -0.731,-0.913 v 0 1.065 h -2.237 v -8.614 h 2.316 v 5.785 c 0,0.145 0.005,0.253 0.013,0.322 v 0 c 0.009,0.062 0.029,0.134 0.06,0.217 v 0 c 0.087,0.26 0.252,0.389 0.493,0.389 v 0 c 0.255,0 0.422,-0.117 0.501,-0.349 v 0 c 0.044,-0.101 0.065,-0.294 0.065,-0.579 v 0 -5.785 h 2.323 v 5.785 c 0,0.145 0.005,0.253 0.013,0.322 v 0 c 0.009,0.062 0.027,0.134 0.053,0.217 v 0 c 0.087,0.26 0.255,0.389 0.5,0.389 v 0 c 0.25,0 0.414,-0.117 0.494,-0.349 v 0 c 0.047,-0.101 0.072,-0.294 0.072,-0.579 v 0 -5.785 h 2.316 v 6.942 c 0,0.549 -0.144,0.996 -0.435,1.337 v 0 c -0.293,0.342 -0.714,0.513 -1.262,0.513 v 0 c -0.505,0 -0.891,-0.109 -1.158,-0.33" /></g></g></g></g><g
       id="g492"><g
         id="g494"><g
           id="g500"><g
             id="g502"><path
               id="path514"
               style="fill:url(#linearGradient512);stroke:none"
               d="m 304.28,246.79 c -0.368,-0.435 -0.553,-0.969 -0.553,-1.606 v 0 -4.059 c 0,-0.646 0.185,-1.179 0.553,-1.6 v 0 c 0.53,-0.565 1.293,-0.849 2.29,-0.849 v 0 c 1.045,0 1.808,0.284 2.29,0.849 v 0 c 0.368,0.43 0.553,0.963 0.553,1.6 v 0 0.921 h -2.317 v -1.079 c 0,-0.197 -0.021,-0.356 -0.066,-0.474 v 0 c -0.092,-0.154 -0.245,-0.23 -0.46,-0.23 v 0 c -0.242,0 -0.397,0.081 -0.467,0.243 v 0 c -0.039,0.083 -0.06,0.236 -0.06,0.461 v 0 1.842 h 3.37 v 2.375 c 0,0.645 -0.185,1.181 -0.553,1.606 v 0 c -0.527,0.566 -1.29,0.849 -2.29,0.849 v 0 c -1.04,0 -1.803,-0.283 -2.29,-0.849 m 1.763,-1.448 c 0,0.219 0.033,0.39 0.099,0.514 v 0 c 0.052,0.127 0.195,0.19 0.428,0.19 v 0 c 0.245,0 0.404,-0.081 0.473,-0.243 v 0 c 0.035,-0.079 0.053,-0.232 0.053,-0.461 v 0 -0.941 h -1.053 z" /></g></g></g></g><g
       id="g516"><g
         id="g518"><g
           id="g524"><g
             id="g526"><path
               id="path538"
               style="fill:url(#linearGradient536);stroke:none"
               d="m 313.433,247.336 c -0.281,-0.223 -0.525,-0.5 -0.73,-0.83 v 0 0.955 h -2.237 v -8.614 h 2.315 v 5.89 c 0,0.171 0.025,0.333 0.073,0.488 v 0 c 0.088,0.222 0.239,0.335 0.454,0.335 v 0 c 0.232,0 0.391,-0.099 0.473,-0.296 v 0 c 0.036,-0.071 0.054,-0.246 0.054,-0.527 v 0 -5.89 h 2.316 v 6.942 c 0,0.549 -0.139,0.996 -0.415,1.337 v 0 c -0.29,0.342 -0.704,0.513 -1.244,0.513 v 0 c -0.394,0 -0.747,-0.101 -1.059,-0.303" /></g></g></g></g><g
       id="g540"><g
         id="g542"><g
           id="g548"><g
             id="g550"><path
               id="path562"
               style="fill:url(#linearGradient560);stroke:none"
               d="m 317.375,249.237 v -1.868 h -0.579 v -1.672 h 0.579 v -5.474 c 0,-0.62 0.176,-1.044 0.527,-1.277 v 0 c 0.271,-0.18 0.699,-0.27 1.283,-0.27 v 0 h 1.118 v 1.752 h -0.296 c -0.153,0 -0.243,0.056 -0.269,0.171 v 0 l -0.04,0.486 v 4.612 h 0.58 v 1.672 h -0.58 v 1.868 z" /></g></g></g></g><g
       id="g564"><g
         id="g566"><g
           id="g572"><g
             id="g574"><path
               id="path586"
               style="fill:url(#linearGradient584);stroke:none"
               d="m 325.219,249.02 c -0.601,-0.543 -0.901,-1.325 -0.901,-2.343 v 0 -4.887 c 0,-0.927 0.157,-1.65 0.473,-2.172 v 0 c 0.404,-0.628 1.005,-0.942 1.803,-0.942 v 0 c 0.838,0 1.485,0.35 1.942,1.047 v 0 -0.876 h 2.171 v 5.93 h -3.277 v -1.995 h 0.876 v -1.388 c 0,-0.54 -0.264,-0.81 -0.791,-0.81 v 0 c -0.262,0 -0.447,0.078 -0.552,0.232 v 0 c -0.11,0.179 -0.165,0.431 -0.165,0.756 v 0 5.323 c 0,0.215 0.046,0.421 0.139,0.619 v 0 c 0.157,0.241 0.368,0.362 0.631,0.362 v 0 c 0.522,0 0.784,-0.283 0.784,-0.849 v 0 -1.073 h 2.355 v 1.199 c 0,0.943 -0.322,1.638 -0.968,2.084 v 0 c -0.531,0.369 -1.271,0.554 -2.224,0.554 v 0 c -0.964,0 -1.73,-0.257 -2.296,-0.771" /></g></g></g></g><g
       id="g588"><g
         id="g590"><g
           id="g596"><g
             id="g598"><path
               id="path610"
               style="fill:url(#linearGradient608);stroke:none"
               d="m 331.964,238.847 h 2.323 v 10.773 h -2.323 z" /></g></g></g></g><g
       id="g612"><g
         id="g614"><g
           id="g620"><g
             id="g622"><path
               id="path634"
               style="fill:url(#linearGradient632);stroke:none"
               d="m 336.077,246.79 c -0.369,-0.435 -0.553,-0.969 -0.553,-1.606 v 0 -4.059 c 0,-0.646 0.184,-1.179 0.553,-1.6 v 0 c 0.53,-0.565 1.293,-0.849 2.289,-0.849 v 0 c 1.045,0 1.808,0.284 2.29,0.849 v 0 c 0.369,0.43 0.553,0.963 0.553,1.6 v 0 4.059 c 0,0.645 -0.184,1.181 -0.553,1.606 v 0 c -0.526,0.566 -1.289,0.849 -2.29,0.849 v 0 c -1.039,0 -1.803,-0.283 -2.289,-0.849 m 1.823,-6.284 c -0.04,0.083 -0.06,0.236 -0.06,0.461 v 0 4.375 c 0,0.219 0.033,0.39 0.099,0.514 v 0 c 0.052,0.127 0.195,0.19 0.427,0.19 v 0 c 0.246,0 0.404,-0.081 0.474,-0.243 v 0 c 0.035,-0.079 0.053,-0.232 0.053,-0.461 v 0 -4.375 c 0,-0.197 -0.022,-0.356 -0.066,-0.474 v 0 c -0.092,-0.154 -0.245,-0.23 -0.461,-0.23 v 0 c -0.241,0 -0.397,0.081 -0.466,0.243" /></g></g></g></g><g
       id="g636"><g
         id="g638"><g
           id="g644"><g
             id="g646"><path
               id="path658"
               style="fill:url(#linearGradient656);stroke:none"
               d="m 342.262,249.62 v -10.773 h 2.316 l 0.027,0.863 c 0.18,-0.351 0.392,-0.611 0.638,-0.777 v 0 c 0.276,-0.171 0.603,-0.257 0.98,-0.257 v 0 c 0.549,0 0.976,0.224 1.283,0.672 v 0 c 0.295,0.447 0.441,1.081 0.441,1.902 v 0 4.204 c 0,0.711 -0.142,1.255 -0.427,1.632 v 0 c -0.299,0.369 -0.718,0.553 -1.258,0.553 v 0 c -0.421,0 -0.757,-0.072 -1.006,-0.217 v 0 c -0.264,-0.153 -0.489,-0.402 -0.678,-0.745 v 0 2.943 z m 2.388,-8.707 c -0.048,0.14 -0.072,0.446 -0.072,0.916 v 0 2.961 c 0,0.263 0.046,0.516 0.138,0.756 v 0 c 0.106,0.224 0.257,0.337 0.455,0.337 v 0 c 0.145,-0.027 0.249,-0.077 0.316,-0.146 v 0 c 0.096,-0.092 0.144,-0.22 0.144,-0.382 v 0 -4.363 c 0,-0.205 -0.04,-0.35 -0.119,-0.434 v 0 c -0.092,-0.087 -0.206,-0.13 -0.341,-0.13 v 0 c -0.269,0 -0.441,0.161 -0.521,0.485" /></g></g></g></g><g
       id="g660"><g
         id="g662"><g
           id="g668"><g
             id="g670"><path
               id="path682"
               style="fill:url(#linearGradient680);stroke:none"
               d="m 349.928,247.053 c -0.509,-0.394 -0.763,-0.901 -0.763,-1.52 v 0 -0.783 h 2.152 v 0.704 c 0,0.395 0.197,0.592 0.592,0.592 v 0 c 0.21,0 0.355,-0.063 0.435,-0.19 v 0 c 0.069,-0.124 0.104,-0.299 0.104,-0.527 v 0 c 0,-0.403 -0.173,-0.722 -0.519,-0.954 v 0 c -0.101,-0.092 -0.494,-0.272 -1.178,-0.539 v 0 c -0.54,-0.232 -0.94,-0.503 -1.198,-0.81 v 0 C 349.185,242.606 349,242.031 349,241.302 v 0 c 0,-0.834 0.103,-1.446 0.31,-1.836 v 0 c 0.289,-0.527 0.815,-0.79 1.578,-0.79 v 0 c 0.711,0 1.268,0.279 1.672,0.836 v 0 -0.665 h 2.125 v 6.094 c 0,0.952 -0.21,1.639 -0.631,2.06 v 0 c -0.421,0.425 -1.145,0.638 -2.172,0.638 v 0 c -0.789,0 -1.441,-0.196 -1.954,-0.586 m 1.473,-6.265 v 1.146 c 0,0.306 0.134,0.564 0.402,0.769 v 0 l 0.645,0.474 v -2.323 c 0,-0.206 -0.044,-0.39 -0.131,-0.552 v 0 c -0.11,-0.133 -0.246,-0.197 -0.408,-0.197 v 0 c -0.338,0 -0.508,0.228 -0.508,0.683" /></g></g></g></g><g
       id="g684"><g
         id="g686"><g
           id="g692"><g
             id="g694"><path
               id="path706"
               style="fill:url(#linearGradient704);stroke:none"
               d="m 355.923,238.847 h 2.323 v 10.773 h -2.323 z" /></g></g></g></g><g
       id="g708"><g
         clip-path="url(#clipPath714)"
         id="g710"><g
           transform="translate(431.6621,277.4424)"
           id="g716"><path
             id="path718"
             style="fill:#e73f32;fill-opacity:1;fill-rule:nonzero;stroke:none"
             d="m 0,0 c -0.047,-0.055 -0.07,-0.125 -0.109,-0.187 -0.599,-0.988 -1.182,-0.996 -1.866,-0.039 -0.941,1.322 -0.716,3.617 0.474,4.705 0.07,0.07 0.179,0.093 0.288,0.148 C -1.127,3.842 -1.065,3.126 -0.964,2.418 -0.879,1.804 -0.622,1.275 -0.125,0.886 0.21,0.622 0.264,0.342 0,0 M 27.164,8.702 C 23.696,9.044 20.235,9.417 16.759,9.713 15.538,9.821 14.301,9.783 13.073,9.752 11.409,9.713 9.752,9.619 8.088,9.542 6.704,9.472 5.312,9.394 3.919,9.309 1.563,9.168 -0.793,9.044 -3.142,8.865 -5.25,8.702 -7.349,8.461 -9.457,8.267 -12.38,7.994 -15.305,7.745 -18.229,7.48 c -1.174,-0.108 -2.34,-0.24 -3.515,-0.341 -0.762,-0.063 -1.532,-0.086 -2.317,-0.124 0,0.512 0,0.924 -0.008,1.344 0,0.436 -0.008,0.871 -0.023,1.307 -0.032,1.346 -0.032,1.33 -1.361,1.377 -1.361,0.054 -1.384,-0.296 -1.353,1.399 0.007,0.397 0,0.801 0,1.198 0.054,0 0.116,0.007 0.171,0.007 0.039,-0.092 0.109,-0.186 0.101,-0.279 -0.024,-0.467 0.21,-0.599 0.638,-0.576 0.451,0.023 0.909,0.031 1.36,0.016 0.35,-0.008 0.506,0.14 0.483,0.49 -0.031,0.669 -0.063,1.346 -0.078,2.014 -0.008,0.381 -0.163,0.49 -0.521,0.327 -0.591,-0.281 -1.213,-0.498 -1.773,-0.817 -0.677,-0.388 -1.268,-0.933 -2.131,-0.886 -0.078,0 -0.241,-0.328 -0.249,-0.514 -0.039,-0.738 -0.047,-1.485 -0.031,-2.232 0.008,-0.327 -0.078,-0.451 -0.405,-0.498 -0.917,-0.116 -1.827,-0.271 -2.737,-0.396 -0.428,-0.055 -0.824,-0.179 -1.283,0.094 -0.498,0.287 -1.073,-0.008 -1.073,-0.428 0,-1.02 0.015,-2.03 0.07,-3.049 0.008,-0.155 0.256,-0.404 0.42,-0.42 0.606,-0.047 1.228,-0.07 1.835,-0.023 1.61,0.124 3.212,0.288 4.822,0.42 0.676,0.054 1.353,0.086 2.107,0.125 -0.777,-1.284 -1.478,-2.458 -2.185,-3.624 -0.055,0.023 -0.117,0.046 -0.172,0.069 -0.038,0.832 -0.101,1.657 -0.108,2.481 0,0.428 -0.132,0.529 -0.544,0.466 -0.949,-0.139 -1.906,-0.279 -2.862,-0.357 -0.848,-0.078 -1.703,-0.241 -2.574,0.054 -0.304,0.101 -0.817,0.187 -0.825,-0.451 0,-0.979 0.008,-1.96 -0.007,-2.939 -0.008,-0.335 0.155,-0.451 0.458,-0.467 0.319,-0.008 0.529,0.094 0.552,0.451 0.008,0.218 0.032,0.444 0.055,0.669 h 0.14 c 0.023,-0.202 0.078,-0.404 0.07,-0.606 -0.023,-0.343 0.109,-0.451 0.443,-0.42 1.462,0.163 2.924,0.31 4.394,0.45 0.194,0.023 0.396,-0.015 0.451,-0.022 0.078,-0.406 0.078,-0.724 0.202,-0.989 0.405,-0.901 0.856,-1.78 1.322,-2.753 -0.334,-0.054 -0.567,-0.124 -0.816,-0.139 -3.057,-0.249 -6.121,-0.475 -9.185,-0.716 -5.754,-0.467 -11.517,-0.941 -17.272,-1.407 -3.803,-0.304 -7.605,-0.591 -11.408,-0.887 -1.633,-0.124 -3.258,-0.249 -4.892,-0.397 -0.459,-0.046 -0.739,0.085 -0.847,0.537 -0.187,0.708 -0.358,1.416 -0.56,2.216 -0.498,-0.07 -1.066,-0.155 -1.641,-0.21 -1.626,-0.17 -1.369,-0.015 -1.485,-1.571 -0.133,-1.811 0.155,-3.538 1.842,-4.603 1.851,-1.174 3.757,-2.263 5.654,-3.375 0.171,-0.102 0.412,-0.125 0.622,-0.133 3.562,-0.085 7.124,-0.163 10.686,-0.24 3.507,-0.086 7.014,-0.165 10.514,-0.242 2.364,-0.054 4.736,-0.109 7.1,-0.163 0.49,-0.008 0.972,-0.023 1.462,-0.031 5.125,-0.117 10.242,-0.233 15.367,-0.351 6.066,-0.131 12.139,-0.24 18.205,-0.373 7.1,-0.155 14.208,-0.326 21.308,-0.482 0.264,-0.008 0.521,0.023 0.785,0.031 0.016,0.055 0.039,0.102 0.063,0.156 -0.132,0.117 -0.241,0.295 -0.389,0.35 -0.288,0.108 -0.591,0.194 -0.894,0.21 -0.926,0.07 -1.851,0.093 -2.769,0.147 -0.645,0.04 -1.065,0.436 -1.221,1.003 -0.155,0.553 -0.295,1.167 -0.202,1.704 0.163,0.941 0.42,1.89 0.809,2.752 1.477,3.291 3.678,6.09 6.089,8.718 2.061,2.248 4.239,4.387 6.361,6.572 0.14,0.14 0.241,0.319 0.374,0.505 -0.133,0.055 -0.179,0.086 -0.226,0.094" /></g><g
           transform="translate(435.4727,303.2217)"
           id="g720"><path
             id="path722"
             style="fill:#e73f32;fill-opacity:1;fill-rule:nonzero;stroke:none"
             d="m 0,0 c -0.988,-0.257 -1.602,0.638 -2.426,0.879 0.311,-0.265 0.63,-0.528 1.05,-0.871 -0.646,-0.187 -1.221,-0.373 -1.805,-0.521 -2.558,-0.653 -5.125,-1.299 -7.691,-1.952 -0.427,-0.101 -0.848,-0.21 -1.268,-0.311 -0.303,-0.078 -0.489,-0.008 -0.497,0.358 -0.078,2.955 -0.171,5.918 -0.257,8.873 0,0.101 0.039,0.21 0.086,0.436 0.622,-0.351 1.19,-0.669 1.757,-1.004 1.952,-1.158 3.904,-2.325 5.864,-3.484 0.148,-0.093 0.327,-0.147 0.49,-0.217 -0.008,0.007 -0.008,0.015 -0.016,0.015 -0.614,0.412 -1.221,0.848 -1.85,1.237 -1.991,1.197 -3.998,2.372 -5.997,3.569 -0.139,0.078 -0.232,0.233 -0.349,0.358 0.046,0.062 0.085,0.124 0.132,0.179 C -8.492,5.086 -4.215,2.621 0.07,0.155 0.047,0.109 0.023,0.055 0,0 m -13.283,-0.482 c -0.038,-0.101 -0.178,-0.226 -0.264,-0.21 -0.109,0.015 -0.288,0.132 -0.295,0.225 -0.039,0.335 -0.047,0.685 -0.016,1.02 0.008,0.085 0.202,0.218 0.303,0.218 0.101,-0.008 0.257,-0.141 0.296,-0.242 0.054,-0.163 0.023,-0.358 0.039,-0.568 -0.016,-0.132 -0.008,-0.303 -0.063,-0.443 m -0.583,3.445 c 0.039,0.125 0.195,0.288 0.296,0.288 0.109,0 0.303,-0.163 0.311,-0.272 0.039,-0.381 0.047,-0.762 0,-1.143 -0.016,-0.125 -0.218,-0.226 -0.327,-0.343 -0.101,0.132 -0.241,0.249 -0.288,0.389 -0.046,0.172 -0.007,0.358 -0.007,0.545 0,0.178 -0.039,0.373 0.015,0.536 m -0.731,-3.22 c -0.039,-0.155 -0.179,-0.295 -0.28,-0.443 -0.101,0.14 -0.226,0.272 -0.288,0.428 -0.046,0.109 -0.007,0.249 -0.007,0.374 h 0.007 c 0,0.124 -0.039,0.271 0.008,0.373 0.054,0.116 0.187,0.202 0.288,0.302 0.093,-0.108 0.241,-0.209 0.265,-0.334 0.046,-0.225 0.054,-0.474 0.007,-0.7 m -0.544,3.29 c 0,0.085 0.171,0.234 0.241,0.218 0.108,-0.016 0.264,-0.133 0.288,-0.233 0.046,-0.187 0.015,-0.389 0.015,-0.591 h 0.023 c -0.015,-0.234 -0.008,-0.475 -0.054,-0.7 -0.023,-0.086 -0.171,-0.203 -0.265,-0.203 -0.085,0 -0.24,0.132 -0.248,0.21 -0.024,0.436 -0.024,0.871 0,1.299 m 36.138,-18.968 c -0.435,1.121 -0.855,2.241 -1.33,3.337 -0.077,0.179 -0.373,0.35 -0.567,0.366 -3.624,0.147 -7.248,0.264 -10.872,0.396 -2.108,0.078 -4.215,0.171 -6.323,0.241 -0.396,0.016 -0.529,0.179 -0.544,0.568 -0.078,2.091 -0.155,4.175 -0.272,6.268 -0.031,0.536 0.132,0.832 0.638,1.027 0.241,0.092 0.567,0.373 0.583,0.583 0.046,0.925 0.007,1.858 -0.031,2.784 -0.008,0.124 -0.172,0.296 -0.303,0.357 -0.452,0.21 -0.95,0.335 -1.385,0.576 -1.446,0.786 -2.885,1.61 -4.324,2.418 -2.924,1.641 -5.848,3.29 -8.772,4.947 -0.171,0.092 -0.381,0.272 -0.42,0.451 -0.07,0.381 -0.295,0.459 -0.622,0.435 -0.381,-0.023 -0.342,-0.327 -0.319,-0.568 0.047,-0.489 -0.179,-0.661 -0.63,-0.63 -0.163,0.008 -0.326,-0.008 -0.49,-0.008 -0.832,-0.015 -0.832,-0.015 -0.87,0.809 -0.008,0.257 0.023,0.537 -0.358,0.553 -0.374,0.007 -0.389,-0.234 -0.405,-0.506 -0.318,-6.027 -0.645,-12.054 -0.98,-18.081 -0.023,-0.444 0.101,-0.622 0.568,-0.63 1.011,0 2.03,-0.03 3.049,-0.085 0.497,-0.024 0.987,-0.125 1.563,-0.21 v 0.606 c -0.024,1.182 -0.039,2.365 -0.078,3.546 -0.008,0.389 0.101,0.599 0.505,0.7 0.972,0.234 1.929,0.521 2.886,0.786 2.488,0.684 4.977,1.369 7.458,2.053 0.272,0.07 0.513,0.038 0.481,-0.303 -0.054,-0.669 0.312,-0.856 0.887,-0.848 0.412,0.008 0.568,-0.21 0.583,-0.607 0.086,-2.13 0.172,-4.253 0.28,-6.376 0.023,-0.483 -0.155,-0.591 -0.591,-0.568 -1.913,0.085 -3.818,0.155 -5.723,0.218 -1.618,0.046 -3.235,0.054 -4.853,0.108 -1.758,0.055 -3.515,0.14 -5.28,0.234 -0.343,0.015 -0.576,-0.086 -0.755,-0.397 -1.112,-1.913 -2.239,-3.81 -3.36,-5.723 -0.069,-0.125 -0.085,-0.288 -0.131,-0.436 0.171,-0.023 0.341,-0.094 0.505,-0.07 0.552,0.078 1.096,0.218 1.656,0.264 2.108,0.203 4.231,0.373 6.338,0.568 0.685,0.07 1.361,0.233 2.038,0.288 0.886,0.078 1.773,0.078 2.659,0.147 1.432,0.102 2.862,0.265 4.293,0.351 1.478,0.093 2.971,0.124 4.456,0.171 2.916,0.1 5.825,0.21 8.741,0.263 1.338,0.024 2.675,-0.045 4.013,-0.131 1.991,-0.124 3.982,-0.295 5.98,-0.444 0.133,-0.015 0.273,-0.008 0.412,-0.008 0.008,0.11 0.032,0.164 0.016,0.21" /></g><g
           transform="translate(363.6934,290.5771)"
           id="g724"><path
             id="path726"
             style="fill:#e73f32;fill-opacity:1;fill-rule:nonzero;stroke:none"
             d="M 0,0 C -0.583,0.412 -1.159,0.816 -1.757,1.244 -1.47,1.446 -0.14,1.54 0.047,1.384 0.132,1.314 0.187,1.174 0.195,1.065 0.21,0.73 0.202,0.396 0.202,0.062 0.132,0.047 0.07,0.023 0,0 M 13.508,2.504 -1.143,3.063 v 0.071 c -0.327,0 -0.653,-0.008 -0.98,0 -0.342,0.008 -0.684,0.039 -1.034,0.039 -0.148,0 -0.35,-0.016 -0.451,-0.11 -0.327,-0.302 -0.203,-1.609 0.163,-1.889 0.894,-0.685 1.812,-1.337 2.675,-2.053 0.218,-0.171 0.374,-0.521 0.397,-0.808 0.062,-0.654 0.008,-1.307 0.031,-1.96 0.008,-0.164 0.093,-0.444 0.171,-0.459 0.56,-0.071 1.167,-0.226 1.695,-0.101 0.895,0.21 1.711,0.707 2.684,0.599 0.318,-0.032 0.653,-0.102 0.972,-0.063 1.057,0.124 2.107,0.342 3.165,0.436 0.731,0.062 1.259,0.412 1.773,0.855 0.178,0.155 0.342,0.318 0.505,0.49 0.599,0.622 1.416,0.576 2.17,0.731 0.404,0.086 0.645,0.257 0.754,0.669 0.187,0.677 0.405,1.353 0.622,2.022 0.304,0.925 0.311,0.933 -0.661,0.972" /></g><g
           transform="translate(406.0146,300.4297)"
           id="g728"><path
             id="path730"
             style="fill:#e73f32;fill-opacity:1;fill-rule:nonzero;stroke:none"
             d="M 0,0 C -0.747,0.272 -1.346,-0.249 -2.022,-0.373 -2.73,-0.513 -3.43,-0.73 -4.129,-0.901 -5.428,-1.236 -6.735,-1.547 -8.026,-1.897 -8.5,-2.021 -8.57,-1.772 -8.578,-1.423 -8.609,-0.536 -8.632,0.358 -8.656,1.244 -8.679,2.17 -8.71,3.096 -8.718,4.021 c 0,0.358 0.078,0.715 0.125,1.151 2.97,-1.703 5.855,-3.36 8.78,-5.039 C 0.085,0.055 0.031,-0.008 0,0 M 1.804,-1.835 C 1.781,-1.617 1.781,-1.399 1.789,-1.182 1.827,-0.56 1.742,-0.171 1.026,0.202 -1.976,1.766 -4.907,3.477 -7.854,5.148 -8.22,5.358 -8.508,5.686 -8.842,5.941 -8.936,6.012 -9.091,6.098 -9.169,6.059 -9.278,6.02 -9.34,5.864 -9.402,5.755 -9.488,5.592 -9.542,5.312 -9.651,5.288 c -0.311,-0.054 -0.653,-0.054 -0.956,0.024 -0.109,0.031 -0.109,0.381 -0.187,0.568 -0.055,0.116 -0.164,0.21 -0.249,0.31 -0.086,-0.1 -0.21,-0.178 -0.257,-0.294 -0.054,-0.133 -0.039,-0.289 -0.046,-0.428 -0.109,-2.108 -0.218,-4.208 -0.327,-6.316 -0.078,-1.539 -0.156,-3.079 -0.249,-4.627 -0.023,-0.396 0.117,-0.551 0.521,-0.551 0.475,0 0.941,-0.063 1.416,-0.078 0.404,-0.016 0.653,-0.14 0.645,-0.607 -0.008,-0.311 0.179,-0.435 0.498,-0.404 0.319,0.039 0.451,0.171 0.427,0.498 -0.023,0.342 0,0.683 0,1.034 h -0.054 c 0,0.326 0.015,0.652 0,0.979 -0.023,0.374 0.078,0.583 0.49,0.693 2.294,0.614 4.581,1.26 6.875,1.897 0.272,0.077 0.419,0.008 0.513,-0.296 0.054,-0.178 0.272,-0.396 0.443,-0.419 0.412,-0.047 0.513,-0.257 0.505,-0.615 -0.015,-0.381 -0.03,-0.769 0,-1.143 0.008,-0.117 0.18,-0.218 0.273,-0.326 0.078,0.1 0.21,0.202 0.225,0.311 0.039,0.381 0.039,0.762 0.039,1.143 0,0.342 0.093,0.614 0.443,0.723 0.405,0.132 0.514,0.412 0.467,0.801" /></g><g
           transform="translate(388.3066,293.0029)"
           id="g732"><path
             id="path734"
             style="fill:#e73f32;fill-opacity:1;fill-rule:nonzero;stroke:none"
             d="m 0,0 c -0.396,-0.179 -0.443,-0.481 -0.435,-0.848 0,-0.271 -0.039,-0.551 -0.055,-0.824 -0.093,-0.008 -0.186,-0.008 -0.28,-0.015 -0.023,0.28 -0.078,0.56 -0.07,0.839 0.008,0.351 0.016,0.669 -0.443,0.732 -0.047,0.008 -0.124,0.039 -0.132,0.077 -0.218,0.708 -0.685,0.366 -1.089,0.257 -1.509,-0.405 -3.01,-0.824 -4.518,-1.221 -0.296,-0.086 -0.412,-0.226 -0.42,-0.528 -0.062,-1.432 -0.055,-1.463 1.345,-1.269 1.104,0.156 0.965,0.141 0.972,-0.909 0,-0.094 -0.007,-0.187 -0.007,-0.272 -0.055,-0.972 -0.063,-0.964 -1.035,-1.152 -0.466,-0.093 -0.925,-0.194 -1.376,-0.334 -0.451,-0.139 -0.623,0.031 -0.607,0.459 0.016,0.575 0.063,1.158 0.093,1.735 0.032,0.435 -0.178,0.645 -0.614,0.629 -0.016,0 -0.031,0.008 -0.054,0.008 -1.283,0.101 -1.299,0.101 -1.229,1.368 0.124,2.396 0.272,4.791 0.381,7.186 0.023,0.467 0.187,0.63 0.661,0.607 1.19,-0.062 1.198,-0.039 1.245,-1.221 0.062,-1.431 0.124,-2.869 0.163,-4.3 0.015,-0.459 0.108,-0.608 0.606,-0.467 1.688,0.459 3.376,0.895 5.071,1.283 0.536,0.117 1.119,0.062 1.68,0.07 0.101,0 0.225,-0.038 0.295,-0.109 C 0.374,1.571 0.265,0.117 0,0" /></g><g
           transform="translate(378.0571,295.8574)"
           id="g736"><path
             id="path738"
             style="fill:#e73f32;fill-opacity:1;fill-rule:nonzero;stroke:none"
             d="m 0,0 c 0.039,-0.692 0.023,-0.692 -0.684,-0.653 -0.342,0.015 -0.692,0.062 -1.035,0.062 -0.427,-0.008 -0.529,0.195 -0.451,0.583 0.195,0.98 0.35,1.968 0.568,2.94 0.117,0.498 -0.07,0.622 -0.513,0.622 C -3.22,3.53 -4.332,3.515 -5.436,3.53 c -0.451,0 -0.583,-0.186 -0.529,-0.598 0.117,-0.934 0.202,-1.874 0.335,-2.808 0.054,-0.389 -0.024,-0.544 -0.436,-0.513 -0.544,0.054 -1.089,0.031 -1.625,0.124 -0.179,0.032 -0.389,0.273 -0.451,0.467 -0.117,0.311 0.14,0.358 0.396,0.412 0.148,0.032 0.366,0.21 0.381,0.342 0.094,0.832 0.148,1.665 0.179,2.497 0.008,0.132 -0.155,0.318 -0.295,0.381 -0.257,0.132 -0.544,0.187 -0.817,0.295 -0.163,0.07 -0.303,0.186 -0.458,0.28 0.015,0.063 0.03,0.117 0.046,0.179 0.335,0 0.669,0.023 0.996,-0.008 0.458,-0.039 0.622,0.179 0.645,0.592 0.039,0.652 0.086,1.306 0.163,1.959 0.016,0.14 0.156,0.272 0.241,0.404 C -6.61,7.396 -6.517,7.264 -6.501,7.123 -6.416,6.4 -6.338,5.677 -6.284,4.954 -6.26,4.658 -6.128,4.533 -5.84,4.541 c 0.295,0.008 0.583,0 0.871,0 0.879,0 0.871,0 0.995,0.895 0.086,0.59 0.195,1.182 0.288,1.773 0.008,0.031 0.046,0.055 0.132,0.147 0.047,-0.17 0.094,-0.287 0.101,-0.412 0.047,-0.645 0.086,-1.298 0.117,-1.952 0.015,-0.373 0.179,-0.544 0.567,-0.583 1.323,-0.1 1.323,-0.116 1.61,1.183 0.062,0.256 0.156,0.505 0.234,0.762 0.062,0 0.124,0 0.194,0.007 0.062,-0.388 0.155,-0.777 0.179,-1.167 0.039,-0.536 0.085,-1.026 0.801,-1.018 0.046,0 0.093,-0.101 0.21,-0.218 C -0.428,3.577 -0.179,2.846 -0.14,2.17 -0.101,1.446 -0.039,0.724 0,0" /></g><g
           transform="translate(414.6079,285.8018)"
           id="g740"><path
             id="path742"
             style="fill:#e73f32;fill-opacity:1;fill-rule:nonzero;stroke:none"
             d="m 0,0 c 0,-0.132 -0.249,-0.357 -0.389,-0.357 -1.757,-0.024 -3.507,-0.024 -5.265,0.007 -0.132,0 -0.366,0.242 -0.366,0.373 -0.007,0.988 0.032,1.984 0.055,2.979 0.008,0.35 0.241,0.35 0.49,0.35 h 2.558 V 3.298 c 0.833,0 1.665,-0.016 2.497,0.008 0.288,0 0.404,-0.102 0.412,-0.374 C 0,1.952 0.023,0.973 0,0" /></g><g
           transform="translate(397.1646,279.9463)"
           id="g744"><path
             id="path746"
             style="fill:#e73f32;fill-opacity:1;fill-rule:nonzero;stroke:none"
             d="m 0,0 c 0.016,-0.389 -0.14,-0.568 -0.513,-0.614 -0.848,-0.117 -1.688,-0.257 -2.528,-0.381 -0.482,-0.078 -0.964,-0.149 -1.446,-0.234 -0.366,-0.062 -0.545,0.046 -0.529,0.451 0.031,0.98 0.039,1.96 0.047,2.94 0.008,0.373 0.147,0.607 0.544,0.684 1.314,0.257 2.629,0.529 3.943,0.801 0.327,0.07 0.42,-0.101 0.42,-0.381 0.008,-0.583 0.008,-1.166 0.008,-1.742 h 0.046 C -0.008,1.011 -0.023,0.505 0,0" /></g><g
           transform="translate(403.5103,277.0371)"
           id="g748"><path
             id="path750"
             style="fill:#e73f32;fill-opacity:1;fill-rule:nonzero;stroke:none"
             d="m 0,0 c -1.104,-0.046 -2.208,-0.116 -3.313,-0.124 -0.171,0 -0.404,0.202 -0.505,0.373 C -4.005,0.576 -4.083,0.973 -4.27,1.299 -4.363,1.471 -4.581,1.642 -4.775,1.681 -5.164,1.758 -5.312,1.563 -5.14,1.175 -4.93,0.7 -4.736,0.218 -4.502,-0.326 -4.712,-0.381 -4.86,-0.45 -5.016,-0.458 c -0.972,-0.055 -1.952,-0.086 -2.932,-0.148 -0.326,-0.024 -0.513,0.109 -0.622,0.404 -0.008,0.031 -0.023,0.062 -0.039,0.101 -0.248,0.654 -0.327,1.486 -1.454,1.26 0.016,0.07 0.023,0.148 0.039,0.218 0.187,0.07 0.365,0.179 0.56,0.194 0.793,0.086 1.594,0.125 2.387,0.21 1.991,0.21 3.982,0.428 5.965,0.669 C -0.7,2.497 -0.474,2.388 -0.327,1.991 -0.147,1.493 0.085,1.027 0.303,0.545 0.451,0.226 0.412,0.016 0,0" /></g><g
           transform="translate(397.1177,288.6328)"
           id="g752"><path
             id="path754"
             style="fill:#e73f32;fill-opacity:1;fill-rule:nonzero;stroke:none"
             d="m 0,0 c -0.007,-0.163 -0.187,-0.412 -0.334,-0.451 -1.322,-0.358 -2.66,-0.685 -3.998,-0.995 -0.544,-0.125 -0.645,-0.024 -0.629,0.551 0.031,1.027 0.085,2.061 0.132,3.088 0.016,0.319 0.109,0.513 0.49,0.576 1.229,0.217 2.449,0.482 3.671,0.746 C -0.202,3.616 0.008,3.507 -0.031,2.986 -0.07,2.566 -0.039,2.146 -0.039,1.734 H -0.07 C -0.039,1.151 0.016,0.575 0,0" /></g><g
           transform="translate(386.2539,284.3633)"
           id="g756"><path
             id="path758"
             style="fill:#e73f32;fill-opacity:1;fill-rule:nonzero;stroke:none"
             d="m 0,0 c 0.023,-0.482 -0.093,-0.738 -0.646,-0.754 -0.536,-0.023 -1.065,-0.156 -1.594,-0.257 -0.342,-0.062 -0.482,0.062 -0.474,0.397 0.023,0.94 0.062,1.882 0.062,2.823 0.008,0.94 0,1.882 -0.047,2.822 -0.023,0.483 0.133,0.7 0.622,0.732 0.545,0.023 1.089,0.1 1.626,0.178 C -0.14,5.988 0,5.871 0,5.576 0,4.79 -0.008,4.013 -0.008,3.228 -0.008,2.885 -0.187,2.753 -0.505,2.722 -0.669,2.706 -0.824,2.613 -0.98,2.559 -0.957,2.504 -0.933,2.457 -0.91,2.403 -0.855,2.388 -0.801,2.356 -0.754,2.372 -0.055,2.566 -0.008,2.527 -0.008,1.796 -0.008,1.197 -0.023,0.599 0,0" /></g><g
           transform="translate(397.1104,286.9922)"
           id="g760"><path
             id="path762"
             style="fill:#e73f32;fill-opacity:1;fill-rule:nonzero;stroke:none"
             d="m 0,0 c -0.039,-0.685 -0.039,-1.377 0,-2.062 0.023,-0.473 -0.086,-0.722 -0.599,-0.839 -1.229,-0.28 -2.45,-0.622 -3.671,-0.956 -0.505,-0.141 -0.661,0.054 -0.622,0.544 0.031,0.412 0.008,0.832 0.008,1.251 h 0.031 c 0,0.436 0.016,0.872 -0.008,1.307 -0.015,0.404 0.195,0.591 0.56,0.669 1.206,0.249 2.403,0.514 3.609,0.762 C 0.015,0.824 0.054,0.746 0,0" /></g><g
           transform="translate(372.6289,281.1514)"
           id="g764"><path
             id="path766"
             style="fill:#e73f32;fill-opacity:1;fill-rule:nonzero;stroke:none"
             d="m 0,0 c 0.016,-0.505 -0.039,-1.011 -0.093,-1.509 -0.008,-0.108 -0.094,-0.272 -0.187,-0.303 -0.622,-0.256 -1.252,-0.49 -1.96,-0.668 0.14,0.816 -0.303,1.648 0.179,2.433 -0.614,0.327 -0.085,0.949 -0.187,1.447 -0.108,0.552 -0.03,1.088 0.778,1.221 -0.046,0.039 -0.093,0.077 -0.132,0.116 -0.117,0.008 -0.233,0.039 -0.342,0.032 -0.327,-0.024 -0.42,0.147 -0.405,0.435 0.008,0.031 0.008,0.07 0.008,0.109 0.055,1.789 0.265,2.022 2.248,2.403 0.015,-0.234 0.039,-0.459 0.039,-0.685 0,-1.267 -0.008,-2.535 -0.031,-3.802 C -0.093,1.034 -0.218,0.832 -0.264,0.7 -0.171,0.459 -0.008,0.233 0,0" /></g><g
           transform="translate(391.5107,283.3604)"
           id="g768"><path
             id="path770"
             style="fill:#e73f32;fill-opacity:1;fill-rule:nonzero;stroke:none"
             d="m 0,0 c -0.008,-0.187 -0.14,-0.49 -0.272,-0.521 -1.314,-0.327 -2.636,-0.607 -3.966,-0.895 -0.024,-0.008 -0.062,0.023 -0.148,0.062 0,1.097 -0.015,2.209 0.015,3.329 0,0.125 0.249,0.303 0.405,0.342 1.104,0.257 2.216,0.482 3.328,0.731 0.42,0.094 0.646,0.015 0.63,-0.497 C -0.031,1.703 0.016,0.848 0,0" /></g><g
           transform="translate(391.5498,279.3398)"
           id="g772"><path
             id="path774"
             style="fill:#e73f32;fill-opacity:1;fill-rule:nonzero;stroke:none"
             d="m 0,0 c 0.016,-0.358 -0.132,-0.545 -0.482,-0.592 -1.205,-0.147 -2.411,-0.295 -3.609,-0.458 -0.311,-0.047 -0.388,0.116 -0.396,0.365 -0.016,0.793 -0.016,1.594 -0.039,2.388 -0.008,0.381 0.171,0.544 0.536,0.614 1.128,0.218 2.248,0.459 3.376,0.707 0.42,0.094 0.614,-0.014 0.591,-0.473 -0.016,-0.436 0,-0.871 0,-1.307 L 0,1.244 C 0,0.832 -0.016,0.412 0,0" /></g><g
           transform="translate(391.5654,287.583)"
           id="g776"><path
             id="path778"
             style="fill:#e73f32;fill-opacity:1;fill-rule:nonzero;stroke:none"
             d="m 0,0 c 0.031,-0.365 -0.125,-0.599 -0.467,-0.692 -0.902,-0.242 -1.812,-0.467 -2.706,-0.701 -0.265,-0.061 -0.521,-0.155 -0.785,-0.217 -0.296,-0.07 -0.506,-0.015 -0.49,0.358 0.015,0.404 0,0.801 0,1.205 h 0.023 v 0.708 c 0.008,1.081 -0.086,0.879 0.91,1.097 0.98,0.21 1.967,0.349 2.955,0.497 C -0.436,2.271 -0.179,2.1 -0.164,1.991 -0.078,1.33 -0.055,0.661 0,0" /></g><g
           transform="translate(416.3574,293.2754)"
           id="g780"><path
             id="path782"
             style="fill:#e73f32;fill-opacity:1;fill-rule:nonzero;stroke:none"
             d="m 0,0 c -0.016,-0.816 -0.008,-1.633 0,-2.457 0.008,-0.304 -0.093,-0.475 -0.436,-0.475 -1.049,0.008 -2.107,0.008 -3.157,0 -0.295,0 -0.435,0.132 -0.428,0.428 0.008,0.856 0.008,1.711 0,2.566 0,0.311 0.148,0.413 0.436,0.413 0.529,-0.008 1.058,0 1.586,0 0.506,0 1.019,-0.008 1.525,0.007 C -0.117,0.498 0.008,0.35 0,0" /></g><g
           transform="translate(411.7612,293.0654)"
           id="g784"><path
             id="path786"
             style="fill:#e73f32;fill-opacity:1;fill-rule:nonzero;stroke:none"
             d="m 0,0 c -0.023,-0.816 -0.039,-1.633 -0.039,-2.449 0,-0.327 -0.163,-0.444 -0.474,-0.436 -0.972,0.016 -1.952,0.031 -2.932,0.038 -0.311,0.008 -0.474,0.141 -0.474,0.459 0,0.779 0,1.564 -0.016,2.341 -0.007,0.343 0.164,0.436 0.467,0.428 0.513,-0.008 1.019,0 1.524,0 v 0.055 h 1.47 C -0.179,0.443 0.008,0.342 0,0" /></g><g
           transform="translate(379.8145,287.7383)"
           id="g788"><path
             id="path790"
             style="fill:#e73f32;fill-opacity:1;fill-rule:nonzero;stroke:none"
             d="m 0,0 c -0.039,-0.436 -0.062,-0.871 -0.147,-1.291 -0.024,-0.116 -0.234,-0.265 -0.374,-0.288 -0.373,-0.077 -0.77,-0.163 -1.135,-0.108 -1.221,0.17 -2.155,-0.584 -3.212,-0.933 -0.086,-0.031 -0.163,-0.07 -0.373,-0.156 0,0.661 -0.016,1.213 0.015,1.773 0,0.108 0.14,0.273 0.257,0.311 0.77,0.241 1.4,0.762 2.263,0.918 0.7,0.131 1.415,0.139 2.115,0.288 C -0.171,0.606 0.039,0.436 0,0" /></g><g
           transform="translate(379.7134,284.9229)"
           id="g792"><path
             id="path794"
             style="fill:#e73f32;fill-opacity:1;fill-rule:nonzero;stroke:none"
             d="m 0,0 c 0,-1.415 0.016,-1.415 -1.384,-1.586 -0.054,-0.008 -0.109,-0.031 -0.163,-0.023 -1.159,0.264 -2.022,-0.537 -3.018,-0.84 -0.155,-0.047 -0.303,-0.11 -0.443,-0.163 -0.241,0.489 -0.218,1.882 0.07,1.966 0.793,0.218 1.376,1.136 2.38,0.794 0.225,0.085 0.474,0.226 0.739,0.272 0.412,0.07 0.832,0.055 1.244,0.109 C -0.147,0.584 0.008,0.451 0,0" /></g><g
           transform="translate(378.2593,280.6387)"
           id="g796"><path
             id="path798"
             style="fill:#e73f32;fill-opacity:1;fill-rule:nonzero;stroke:none"
             d="m 0,0 c -1.159,-0.031 -2.177,-0.335 -3.149,-0.91 -0.125,-0.07 -0.265,-0.11 -0.537,-0.218 0,0.653 -0.016,1.213 0.016,1.766 0,0.116 0.131,0.263 0.248,0.326 0.513,0.265 1.011,0.622 1.564,0.739 0.987,0.21 2.014,0.272 3.025,0.373 C 1.252,2.092 1.361,1.913 1.447,1.812 1.47,1.78 1.454,1.711 1.454,1.656 1.54,0.108 1.54,0.038 0,0" /></g><g
           transform="translate(400.563,291.8213)"
           id="g800"><path
             id="path802"
             style="fill:#e73f32;fill-opacity:1;fill-rule:nonzero;stroke:none"
             d="m 0,0 c -0.054,-0.614 -0.07,-1.229 -0.14,-1.843 -0.023,-0.164 -0.171,-0.382 -0.319,-0.451 -0.762,-0.358 -1.547,-0.677 -2.325,-1.004 -0.319,-0.14 -0.482,-0.069 -0.466,0.312 0.015,0.482 0.007,0.971 0.007,1.462 h 0.039 c 0,0.49 0.016,0.979 -0.008,1.469 -0.016,0.359 0.14,0.491 0.483,0.483 h 2.333 C -0.101,0.428 0.031,0.311 0,0" /></g><g
           transform="translate(386.3315,280.5762)"
           id="g804"><path
             id="path806"
             style="fill:#e73f32;fill-opacity:1;fill-rule:nonzero;stroke:none"
             d="m 0,0 c 0.016,-0.396 -0.163,-0.583 -0.576,-0.622 -0.591,-0.063 -1.181,-0.171 -1.773,-0.265 -0.311,-0.047 -0.435,0.086 -0.435,0.389 0.008,0.412 0.008,0.832 0.008,1.252 h 0.007 c 0,0.396 -0.038,0.802 0.016,1.19 0.016,0.156 0.21,0.397 0.35,0.42 0.638,0.101 1.283,0.156 1.936,0.187 0.117,0 0.35,-0.21 0.366,-0.335 C -0.039,1.478 -0.031,0.738 0,0" /></g><g
           transform="translate(383.0107,278.1182)"
           id="g808"><path
             id="path810"
             style="fill:#e73f32;fill-opacity:1;fill-rule:nonzero;stroke:none"
             d="m 0,0 c -0.226,-0.279 -0.894,-0.218 -1.369,-0.295 -1.524,-0.249 -1.197,-0.094 -1.213,1.026 -0.015,0.537 0.023,1.081 0.023,1.625 0,0.304 0.117,0.483 0.436,0.514 0.638,0.055 1.283,0.14 1.929,0.171 0.093,0 0.288,-0.202 0.295,-0.318 C 0.14,2.303 0.117,1.891 0.117,1.47 H 0.156 C 0.125,0.965 0.257,0.327 0,0" /></g><g
           transform="translate(383.1587,287.124)"
           id="g812"><path
             id="path814"
             style="fill:#e73f32;fill-opacity:1;fill-rule:nonzero;stroke:none"
             d="m 0,0 c -0.008,-0.365 -0.008,-0.724 -0.008,-1.089 -0.008,-1.391 -0.008,-1.391 -1.345,-1.734 -1.431,-0.358 -1.509,-0.295 -1.524,1.128 -0.008,0.435 -0.032,0.871 -0.086,1.299 -0.031,0.334 0.109,0.458 0.42,0.49 0.715,0.085 1.431,0.171 2.147,0.271 C -0.093,0.404 0,0.272 0,0" /></g><g
           transform="translate(394.0693,276.1895)"
           id="g816"><path
             id="path818"
             style="fill:#e73f32;fill-opacity:1;fill-rule:nonzero;stroke:none"
             d="m 0,0 c -0.537,-0.038 -0.98,-0.085 -1.423,-0.108 -0.599,-0.039 -1.198,-0.063 -1.789,-0.109 -0.326,-0.023 -0.521,0.101 -0.622,0.397 -0.054,0.147 -0.124,0.302 -0.179,0.458 -0.163,0.474 -0.35,0.925 -1.003,0.833 -0.046,0 -0.109,0.069 -0.163,0.108 0,0.055 0.008,0.117 0.008,0.171 0.459,0.062 0.909,0.133 1.368,0.172 0.832,0.077 1.664,0.147 2.504,0.179 0.164,0.007 0.428,-0.094 0.49,-0.226 C -0.521,1.299 -0.295,0.692 0,0" /></g><g
           transform="translate(382.0312,281.4473)"
           id="g820"><path
             id="path822"
             style="fill:#e73f32;fill-opacity:1;fill-rule:nonzero;stroke:none"
             d="m 0,0 c -0.389,-0.07 -0.786,-0.102 -1.19,-0.148 -0.373,-0.039 -0.583,0.109 -0.568,0.521 0.016,0.451 0.031,0.91 0,1.361 -0.023,0.389 0.187,0.591 0.513,0.645 0.483,0.094 0.973,0.133 1.463,0.18 C 0.49,2.582 0.949,2.667 0.995,2.566 1.135,2.271 1.104,1.905 1.143,1.562 V 1.555 C 1.159,0.226 1.159,0.226 0,0" /></g><g
           transform="translate(389.1079,275.708)"
           id="g824"><path
             id="path826"
             style="fill:#e73f32;fill-opacity:1;fill-rule:nonzero;stroke:none"
             d="m 0,0 c -1.12,-0.07 -2.131,-0.141 -3.142,-0.171 -0.132,0 -0.311,0.163 -0.397,0.295 -0.116,0.179 -0.17,0.397 -0.256,0.599 -0.148,0.358 -0.28,0.731 -0.801,0.653 -0.062,-0.008 -0.155,0.109 -0.303,0.218 0.186,0.062 0.287,0.125 0.396,0.14 1.05,0.085 2.108,0.14 3.15,0.248 C -0.972,2.021 -0.778,1.89 -0.646,1.555 -0.459,1.065 -0.249,0.591 0,0" /></g><g
           transform="translate(384.1543,275.2412)"
           id="g828"><path
             id="path830"
             style="fill:#e73f32;fill-opacity:1;fill-rule:nonzero;stroke:none"
             d="m 0,0 c -1.081,-0.055 -2.038,-0.116 -2.986,-0.14 -0.117,0 -0.281,0.202 -0.358,0.35 -0.249,0.506 -0.296,1.197 -1.213,1.073 0.023,0.063 0.038,0.124 0.062,0.187 0.148,0.054 0.287,0.147 0.435,0.163 0.957,0.086 1.914,0.171 2.87,0.225 0.155,0.008 0.404,-0.116 0.474,-0.249 C -0.459,1.136 -0.272,0.63 0,0" /></g><g
           transform="translate(379.1772,274.7588)"
           id="g832"><path
             id="path834"
             style="fill:#e73f32;fill-opacity:1;fill-rule:nonzero;stroke:none"
             d="m 0,0 c -0.996,-0.039 -1.843,-0.093 -2.691,-0.093 -0.148,0 -0.334,0.234 -0.428,0.397 -0.225,0.42 -0.256,1.01 -1.026,0.932 0.023,0.047 0.046,0.102 0.062,0.157 0.14,0.038 0.28,0.092 0.42,0.108 0.855,0.078 1.703,0.163 2.559,0.194 0.17,0 0.427,-0.171 0.521,-0.334 C -0.366,0.965 -0.218,0.529 0,0" /></g><g
           transform="translate(372.5278,276.96)"
           id="g836"><path
             id="path838"
             style="fill:#e73f32;fill-opacity:1;fill-rule:nonzero;stroke:none"
             d="m 0,0 c -0.008,-0.117 -0.171,-0.272 -0.303,-0.327 -0.56,-0.24 -1.143,-0.444 -1.812,-0.692 0,0.762 -0.008,1.447 0.008,2.139 0,0.069 0.108,0.155 0.178,0.187 0.615,0.255 1.237,0.497 1.945,0.777 C 0.016,1.299 0.031,0.646 0,0" /></g><g
           transform="translate(379.6982,278.3984)"
           id="g840"><path
             id="path842"
             style="fill:#e73f32;fill-opacity:1;fill-rule:nonzero;stroke:none"
             d="m 0,0 c -0.031,-0.303 -0.156,-0.459 -0.475,-0.451 -0.272,0 -0.544,-0.031 -0.808,-0.047 -1.144,-0.108 -1.229,-0.357 -1.144,1.12 0.055,1.011 0.078,0.856 0.871,0.895 0.055,0 0.109,0.007 0.164,0.015 C 0.14,1.656 0.187,1.595 0,0" /></g><g
           transform="translate(369.7983,285.0947)"
           id="g844"><path
             id="path846"
             style="fill:#e73f32;fill-opacity:1;fill-rule:nonzero;stroke:none"
             d="m 0,0 c -0.008,-1.104 -0.047,-1.136 -1.143,-1.02 -1.299,0.133 -1.283,0.133 -1.26,1.409 0.007,0.481 0.093,0.777 0.661,0.683 0.233,-0.03 0.474,0.039 0.708,0.032 C 0.008,1.064 0.008,1.058 0,0" /></g><g
           transform="translate(369.6816,282.1777)"
           id="g848"><path
             id="path850"
             style="fill:#e73f32;fill-opacity:1;fill-rule:nonzero;stroke:none"
             d="m 0,0 c -0.055,-1.058 -0.008,-1.065 -1.097,-0.901 -0.303,0.046 -0.606,0.085 -0.894,0.178 -0.132,0.046 -0.272,0.218 -0.311,0.358 -0.047,0.186 0,0.396 0.008,0.598 0.046,1.089 -0.094,1.097 1.088,1.003 C -0.117,1.159 0.078,1.408 0,0" /></g><g
           transform="translate(368.6162,278.6318)"
           id="g852"><path
             id="path854"
             style="fill:#e73f32;fill-opacity:1;fill-rule:nonzero;stroke:none"
             d="M 0,0 C -1.244,0.132 -1.244,0.124 -1.221,1.003 -1.19,2.123 -1.151,2.154 -0.023,2.1 1.058,2.053 1.058,2.053 1.073,0.987 1.089,-0.296 1.073,-0.116 0,0" /></g><g
           transform="translate(363.0713,280.5918)"
           id="g856"><path
             id="path858"
             style="fill:#e73f32;fill-opacity:1;fill-rule:nonzero;stroke:none"
             d="m 0,0 v -2.076 c 0,-0.039 -0.023,-0.094 -0.046,-0.102 -0.6,-0.155 -1.206,-0.31 -1.805,-0.451 -0.023,0 -0.132,0.202 -0.14,0.312 -0.008,0.326 0.008,0.653 0.016,0.979 0.023,0.942 0.023,0.949 0.949,1.144 C -0.723,-0.133 -0.42,-0.078 0,0" /></g><g
           transform="translate(363.0947,285.9111)"
           id="g860"><path
             id="path862"
             style="fill:#e73f32;fill-opacity:1;fill-rule:nonzero;stroke:none"
             d="m 0,0 c 0,-0.739 0,-1.369 -0.008,-1.999 0,-0.086 -0.039,-0.226 -0.093,-0.241 -0.584,-0.163 -1.174,-0.311 -1.773,-0.444 -0.031,0 -0.14,0.195 -0.14,0.304 -0.008,0.521 -0.008,1.05 0.031,1.571 0.016,0.14 0.171,0.327 0.303,0.373 C -1.167,-0.272 -0.638,-0.164 0,0" /></g><g
           transform="translate(363.0713,281.2373)"
           id="g864"><path
             id="path866"
             style="fill:#e73f32;fill-opacity:1;fill-rule:nonzero;stroke:none"
             d="m 0,0 c 0,-0.109 -0.163,-0.28 -0.28,-0.312 -0.521,-0.147 -1.05,-0.256 -1.672,-0.396 0,0.739 -0.007,1.407 0.008,2.076 0.007,0.094 0.148,0.226 0.249,0.257 0.536,0.132 1.081,0.241 1.711,0.381 C 0.016,1.26 0.031,0.63 0,0" /></g><g
           transform="translate(369.6973,276.7109)"
           id="g868"><path
             id="path870"
             style="fill:#e73f32;fill-opacity:1;fill-rule:nonzero;stroke:none"
             d="m 0,0 c 0,-0.163 -0.016,-0.326 -0.016,-0.49 -0.007,-0.287 -0.124,-0.42 -0.443,-0.381 -0.466,0.055 -0.933,0.078 -1.408,0.117 -0.054,0 -0.116,-0.008 -0.155,0.024 -0.614,0.465 -0.186,1.095 -0.241,1.648 -0.047,0.381 0.287,0.389 0.576,0.35 C -1.509,1.244 -1.322,1.244 -1.143,1.229 0.046,1.136 0,1.4 0,0" /></g><g
           transform="translate(363.0635,275.9805)"
           id="g872"><path
             id="path874"
             style="fill:#e73f32;fill-opacity:1;fill-rule:nonzero;stroke:none"
             d="m 0,0 c -0.008,-0.125 -0.194,-0.304 -0.334,-0.343 -0.498,-0.155 -1.003,-0.264 -1.602,-0.412 0,0.747 -0.016,1.439 0.007,2.123 0.008,0.086 0.164,0.21 0.273,0.234 0.521,0.131 1.05,0.241 1.672,0.38 C 0.016,1.252 0.039,0.622 0,0" /></g><g
           transform="translate(376.8984,278.1885)"
           id="g876"><path
             id="path878"
             style="fill:#e73f32;fill-opacity:1;fill-rule:nonzero;stroke:none"
             d="m 0,0 c -0.016,-0.155 -0.14,-0.357 -0.265,-0.428 -0.622,-0.334 -1.259,-0.63 -2.045,-1.01 0,0.708 -0.023,1.275 0.016,1.842 0,0.117 0.187,0.257 0.319,0.327 0.505,0.234 1.026,0.444 1.539,0.676 C -0.132,1.548 0.016,1.47 0.016,1.136 0.016,0.755 0.039,0.373 0,0" /></g><g
           transform="translate(372.9712,274.2305)"
           id="g880"><path
             id="path882"
             style="fill:#e73f32;fill-opacity:1;fill-rule:nonzero;stroke:none"
             d="m 0,0 c -0.14,-0.008 -0.288,0.008 -0.428,-0.016 -0.715,-0.132 -1.205,0.039 -1.423,0.825 -0.062,0.217 -0.412,0.365 -0.7,0.598 0.949,0.086 1.866,0.195 2.784,0.234 C 0.396,1.648 0.646,1.438 0.731,1.268 1.369,0.077 1.337,0.031 0,0" /></g><g
           transform="translate(367.1465,285.3506)"
           id="g884"><path
             id="path886"
             style="fill:#e73f32;fill-opacity:1;fill-rule:nonzero;stroke:none"
             d="m 0,0 c 0.008,-0.03 0,-0.069 0,-0.101 0,-0.902 0,-0.902 -0.832,-1.22 -0.132,-0.055 -0.272,-0.094 -0.412,-0.141 -1.019,-0.365 -1.019,-0.365 -1.019,0.716 -0.008,0.91 -0.008,0.918 0.84,1.197 0.21,0.07 0.427,0.102 0.622,0.179 C 0.125,1.026 -0.008,0.692 0,0" /></g><g
           transform="translate(367.1309,281.9443)"
           id="g888"><path
             id="path890"
             style="fill:#e73f32;fill-opacity:1;fill-rule:nonzero;stroke:none"
             d="m 0,0 c -0.031,-0.179 -0.226,-0.389 -0.404,-0.481 -0.389,-0.187 -0.809,-0.304 -1.214,-0.452 -0.536,-0.194 -0.63,-0.132 -0.637,0.444 0,0.147 0,0.287 0.007,0.435 0,0.909 0,0.917 0.848,1.19 0.327,0.109 0.661,0.194 0.988,0.296 0.272,0.085 0.42,0 0.42,-0.296 C 0.016,0.755 0.062,0.366 0,0" /></g><g
           transform="translate(367.1152,276.3145)"
           id="g892"><path
             id="path894"
             style="fill:#e73f32;fill-opacity:1;fill-rule:nonzero;stroke:none"
             d="m 0,0 c 0,-0.07 -0.085,-0.179 -0.155,-0.21 -0.584,-0.218 -1.182,-0.443 -1.782,-0.622 -0.062,-0.023 -0.256,0.163 -0.279,0.28 -0.047,0.202 -0.016,0.427 -0.016,0.645 -0.008,0.98 -0.008,0.98 0.941,1.237 0.055,0.016 0.101,0.031 0.156,0.038 0.365,0.063 0.723,0.125 1.089,0.195 C -0.031,1.042 -0.008,0.521 0,0" /></g><g
           transform="translate(366.3999,278.6006)"
           id="g896"><path
             id="path898"
             style="fill:#e73f32;fill-opacity:1;fill-rule:nonzero;stroke:none"
             d="m 0,0 c -0.334,-0.062 -0.646,-0.233 -0.964,-0.35 -0.343,-0.125 -0.584,-0.07 -0.553,0.366 0.032,0.482 -0.116,1.197 0.141,1.392 0.481,0.373 1.189,0.466 1.812,0.646 C 0.505,2.068 0.7,1.89 0.723,1.781 0.77,1.571 0.739,1.354 0.739,1.089 0.871,0.506 0.661,0.133 0,0" /></g><g
           transform="translate(369.1138,274.0049)"
           id="g900"><path
             id="path902"
             style="fill:#e73f32;fill-opacity:1;fill-rule:nonzero;stroke:none"
             d="m 0,0 c -0.046,-0.078 -0.171,-0.141 -0.264,-0.148 -0.576,-0.054 -1.159,-0.109 -1.735,-0.117 -0.155,0 -0.357,0.156 -0.459,0.296 -0.248,0.326 -0.458,0.684 -0.707,1.073 0.786,0.054 1.618,0.125 2.45,0.171 C -0.466,1.291 0.132,0.218 0,0" /></g><g
           transform="translate(374.27,282.668)"
           id="g904"><path
             id="path906"
             style="fill:#e73f32;fill-opacity:1;fill-rule:nonzero;stroke:none"
             d="m 0,0 c 0.008,-0.357 -0.125,-0.567 -0.521,-0.606 -0.817,-0.079 -0.887,-0.032 -0.902,0.816 -0.008,0.124 0,0.249 0,0.381 h -0.016 c 0,0.125 -0.016,0.257 0,0.381 0.039,0.319 -0.179,0.786 0.436,0.801 0.676,0.016 0.933,-0.179 0.98,-0.794 C 0.008,0.653 -0.008,0.326 0,0" /></g><g
           transform="translate(364.2612,273.4375)"
           id="g908"><path
             id="path910"
             style="fill:#e73f32;fill-opacity:1;fill-rule:nonzero;stroke:none"
             d="m 0,0 c -0.715,-0.062 -1.353,-0.141 -1.991,-0.148 -0.132,0 -0.272,0.249 -0.389,0.396 -0.179,0.226 -0.342,0.459 -0.599,0.809 0.747,0.054 1.494,0.14 2.24,0.156 C -0.614,1.221 -0.451,0.987 -0.358,0.84 -0.226,0.606 -0.148,0.35 0,0" /></g><g
           transform="translate(374.1689,280.6611)"
           id="g912"><path
             id="path914"
             style="fill:#e73f32;fill-opacity:1;fill-rule:nonzero;stroke:none"
             d="m 0,0 c 0,-0.14 0,-0.287 -0.008,-0.428 0,-0.722 -0.257,-0.932 -0.964,-0.754 -0.109,0.024 -0.265,0.163 -0.273,0.265 -0.054,0.521 -0.085,1.042 -0.093,1.555 -0.016,0.568 0.412,0.42 0.739,0.427 0.319,0 0.645,0.024 0.583,-0.465 C -0.047,0.405 -0.023,0.202 -0.023,0 Z" /></g><g
           transform="translate(374.1768,277.916)"
           id="g916"><path
             id="path918"
             style="fill:#e73f32;fill-opacity:1;fill-rule:nonzero;stroke:none"
             d="m 0,0 h -0.008 v -0.381 c -0.015,-0.598 -0.506,-0.91 -1.05,-0.645 -0.101,0.054 -0.202,0.217 -0.202,0.335 -0.031,0.473 -0.054,0.948 0,1.415 0.023,0.155 0.296,0.42 0.42,0.396 C -0.537,1.081 -0.039,1.307 0,0.708 0.015,0.475 0,0.241 0,0" /></g><g
           transform="translate(374.1455,285.2344)"
           id="g920"><path
             id="path922"
             style="fill:#e73f32;fill-opacity:1;fill-rule:nonzero;stroke:none"
             d="m 0,0 c -0.031,-0.171 -0.233,-0.404 -0.396,-0.436 -0.817,-0.186 -0.817,-0.17 -0.848,0.918 0,0.179 -0.008,0.366 0,0.544 0.031,0.35 -0.047,0.77 0.536,0.74 C -0.109,1.734 0.016,1.625 0.023,1.026 0.031,0.685 0.062,0.326 0,0" /></g><g
           transform="translate(364.6035,279.7129)"
           id="g924"><path
             id="path926"
             style="fill:#e73f32;fill-opacity:1;fill-rule:nonzero;stroke:none"
             d="m 0,0 c 0.008,-0.304 0.008,-0.614 -0.008,-0.918 -0.008,-0.265 0.062,-0.599 -0.381,-0.544 -0.381,0.047 -0.855,-0.008 -0.817,0.614 0.016,0.195 0.008,0.397 0.008,0.599 h 0.031 c 0,0.109 -0.007,0.218 0.008,0.319 0.039,0.28 -0.21,0.731 0.358,0.723 C -0.148,0.793 0,0.63 0,0" /></g><g
           transform="translate(364.6035,285.0322)"
           id="g928"><path
             id="path930"
             style="fill:#e73f32;fill-opacity:1;fill-rule:nonzero;stroke:none"
             d="m 0,0 c 0,-0.35 0.008,-0.692 0,-1.034 -0.008,-0.234 0.008,-0.522 -0.35,-0.467 -0.327,0.047 -0.778,-0.047 -0.848,0.467 -0.031,0.249 0,0.505 0,0.754 h 0.031 c 0,0.109 -0.015,0.225 0,0.327 0.039,0.271 -0.202,0.683 0.288,0.738 C -0.319,0.855 0,0.536 0,0" /></g><g
           transform="translate(364.1836,275.6377)"
           id="g932"><path
             id="path934"
             style="fill:#e73f32;fill-opacity:1;fill-rule:nonzero;stroke:none"
             d="m 0,0 c -0.381,0.047 -0.855,-0.047 -0.786,0.599 0.024,0.202 0.024,0.404 0.032,0.598 h 0.007 c 0,0.133 -0.015,0.257 0.008,0.382 0.039,0.248 -0.202,0.638 0.288,0.684 0.513,0.047 0.863,-0.28 0.871,-0.77 0.008,-0.304 0,-0.614 0,-0.926 C 0.42,0.28 0.474,-0.055 0,0" /></g><g
           transform="translate(364.6035,282.4111)"
           id="g936"><path
             id="path938"
             style="fill:#e73f32;fill-opacity:1;fill-rule:nonzero;stroke:none"
             d="m 0,0 c 0,-0.342 -0.008,-0.685 0,-1.034 0.008,-0.288 -0.039,-0.528 -0.404,-0.467 -0.327,0.063 -0.794,-0.101 -0.802,0.49 v 0.754 h 0.039 c 0,0.11 -0.015,0.226 0,0.327 0.047,0.265 -0.194,0.685 0.35,0.685 C -0.265,0.755 0,0.506 0,0" /></g><g
           transform="translate(378.0884,294.0225)"
           id="g940"><path
             id="path942"
             style="fill:#e73f32;fill-opacity:1;fill-rule:nonzero;stroke:none"
             d="m 0,0 c 0.031,-0.537 -0.179,-0.755 -0.622,-0.639 -0.801,0.024 -0.817,0.055 -0.817,0.677 0.008,0.794 0.607,0.467 0.988,0.537 C 0.031,0.652 -0.016,0.318 0,0" /></g><g
           transform="translate(376.3306,293.9209)"
           id="g944"><path
             id="path946"
             style="fill:#e73f32;fill-opacity:1;fill-rule:nonzero;stroke:none"
             d="M 0,0 C 0.047,-0.583 -0.334,-0.482 -0.739,-0.475 -1.12,-0.521 -1.431,-0.42 -1.4,0.124 -1.369,0.809 -0.832,0.599 -0.466,0.646 0.047,0.716 -0.031,0.327 0,0" /></g><g
           transform="translate(374.6123,293.9678)"
           id="g948"><path
             id="path950"
             style="fill:#e73f32;fill-opacity:1;fill-rule:nonzero;stroke:none"
             d="m 0,0 c 0,-0.436 -0.226,-0.521 -0.552,-0.467 -0.405,0.024 -0.825,-0.039 -0.794,0.56 0.032,0.645 0.498,0.412 0.832,0.451 C -0.102,0.599 0.007,0.381 0,0" /></g><g
           transform="translate(372.8779,293.999)"
           id="g952"><path
             id="path954"
             style="fill:#e73f32;fill-opacity:1;fill-rule:nonzero;stroke:none"
             d="m 0,0 c -0.016,-0.498 -0.366,-0.343 -0.646,-0.358 -0.256,0.062 -0.699,-0.148 -0.676,0.427 0.039,0.669 0.552,0.343 0.863,0.412 C -0.085,0.56 0,0.326 0,0" /></g><g
           transform="translate(370.7783,293.6797)"
           id="g956"><path
             id="path958"
             style="fill:#e73f32;fill-opacity:1;fill-rule:nonzero;stroke:none"
             d="M 0,0 C -0.187,0.016 -0.366,0.031 -0.544,0.016 -0.863,0 -1.003,0.187 -0.918,0.443 c 0.047,0.14 0.265,0.242 0.42,0.328 0.07,0.038 0.171,0.007 0.265,0.007 0.023,0.031 0.054,0.062 0.077,0.101 C 0.023,0.739 0.295,0.646 0.365,0.467 0.482,0.202 0.357,-0.031 0,0" /></g><g
           transform="translate(369.3315,293.835)"
           id="g960"><path
             id="path962"
             style="fill:#e73f32;fill-opacity:1;fill-rule:nonzero;stroke:none"
             d="m 0,0 c -0.327,-0.093 -0.708,-0.077 -1.05,-0.016 -0.14,0.024 -0.241,0.281 -0.358,0.429 0.024,0.054 0.055,0.116 0.078,0.179 0.405,0 0.809,0.031 1.213,-0.016 C 0.132,0.553 0.226,0.062 0,0" /></g><g
           transform="translate(430.7568,305.4238)"
           id="g964"><path
             id="path966"
             style="fill:#e73f32;fill-opacity:1;fill-rule:nonzero;stroke:none"
             d="M 0,0 C 0.697,-0.423 1.394,-0.846 2.091,-1.269 1.394,-0.846 0.697,-0.423 0,0" /></g><g
           transform="translate(261.8994,165.8076)"
           id="g968"><path
             id="path970"
             style="fill:#0537c6;fill-opacity:1;fill-rule:nonzero;stroke:none"
             d="m 0,0 c 38.974,0.985 72.741,15.671 99.316,45.977 10.598,12.085 18.698,25.706 24.027,40.902 0.449,1.28 0.123,2.833 0.157,4.26 -1.045,-0.832 -2.36,-1.475 -3.097,-2.524 -18.795,-26.78 -44.299,-43.029 -76.725,-47.229 -33.92,-4.394 -63.853,5.337 -89.154,28.442 -19.108,17.449 -30.126,39.346 -34.143,64.803 -1.653,10.481 -1.687,21.028 0.115,31.496 1.2,6.975 -0.963,12.272 -6.55,16.558 -3.762,2.885 -7.262,6.142 -10.689,9.431 -8.437,8.099 -19.853,5.765 -24.462,-5 -4.395,-10.265 -5.137,-20.799 -3.307,-31.755 3.666,-21.941 10.566,-42.594 23.364,-61.006 1.725,-2.481 3.738,-4.76 5.473,-7.235 0.676,-0.964 0.953,-2.207 1.412,-3.323 -1.252,0.222 -2.675,0.134 -3.728,0.714 -9.232,5.084 -16.74,12.196 -23.265,20.37 -2.855,3.577 -5.407,7.395 -8.161,11.055 -0.458,0.609 -1.249,0.968 -1.885,1.443 -0.226,-0.85 -0.743,-1.738 -0.634,-2.542 3.07,-22.565 11.709,-42.77 24.823,-61.396 9.238,-13.12 21.953,-21.049 36.104,-27.251 5.679,-2.488 11.714,-4.161 17.556,-6.288 0.865,-0.315 1.561,-1.091 2.335,-1.654 -0.824,-0.487 -1.596,-1.161 -2.487,-1.416 -1.233,-0.353 -2.578,-0.3 -3.831,-0.604 -0.67,-0.163 -1.248,-0.709 -1.867,-1.083 0.445,-0.661 0.74,-1.617 1.359,-1.928 2.623,-1.318 5.308,-2.53 8.033,-3.626 C -34.244,3.294 -17.909,0.386 0,0" /></g><g
           transform="translate(219.6299,357.0166)"
           id="g972"><path
             id="path974"
             style="fill:#0537c6;fill-opacity:1;fill-rule:nonzero;stroke:none"
             d="m 0,0 c 3.094,1.543 3.939,3.644 3.303,6.42 -0.854,3.723 -1.708,7.446 -2.646,11.148 -0.493,1.947 -0.807,3.654 1.248,5.057 0.611,0.417 1.004,1.857 0.774,2.607 -0.231,0.755 -1.282,1.578 -2.114,1.771 -2.858,0.663 -4.101,3.789 -2.273,6.118 2.793,3.556 2.563,4.23 -1.76,5.262 -0.357,0.085 -0.75,0.283 -0.989,0.55 -1.755,1.966 -1.839,7.736 -0.118,9.817 1.924,2.323 3.935,4.574 5.858,6.898 2.849,3.443 3.009,6.829 0.491,9.123 -2.455,2.237 -5.627,1.791 -8.817,-1.251 -1.237,-1.18 -2.454,-2.381 -3.688,-3.564 -5.519,-5.288 -5.582,-5.3 -13.177,-2.746 -0.018,0.386 0.088,0.905 -0.086,1.302 -0.442,1.007 -0.789,2.357 -1.597,2.804 -0.625,0.346 -2.304,-0.162 -2.793,-0.824 -1.42,-1.92 -3.113,-2.182 -4.999,-1.256 -0.856,0.421 -1.43,1.459 -2.07,2.266 -0.648,0.819 -1.069,2.164 -1.865,2.417 -0.759,0.243 -2.228,-0.352 -2.76,-1.053 -1.25,-1.65 -2.587,-1.842 -4.464,-1.392 -3.616,0.864 -7.279,1.535 -10.935,2.223 -0.975,0.183 -2.18,0.501 -2.951,0.111 -1.33,-0.675 -2.403,-1.856 -3.584,-2.825 0.965,-0.748 1.83,-1.719 2.913,-2.198 2.294,-1.015 4.741,-1.681 7.052,-2.663 2.326,-0.99 4.567,-2.185 6.835,-3.309 0.157,-0.079 0.263,-0.474 0.345,-0.459 3.409,0.618 5.583,-1.521 8.031,-3.328 2.144,-1.582 4.647,-2.673 6.961,-4.033 0.586,-0.345 1.057,-0.886 1.927,-1.635 -1.827,-2.211 -3.634,-4.309 -5.344,-6.483 -3.353,-4.262 -6.573,-8.632 -10.038,-12.8 -0.753,-0.907 -2.321,-1.647 -3.485,-1.609 -3.607,0.12 -7.194,0.742 -10.801,0.998 -3.038,0.215 -3.87,-0.413 -5.12,-3.445 4.107,-2.177 8.248,-4.371 12.447,-6.596 -0.283,-1.278 -0.533,-2.41 -0.772,-3.486 0.368,-0.207 0.603,-0.429 0.7,-0.38 3.45,1.766 4.885,-0.185 6.112,-3.061 0.983,-2.302 2.387,-4.421 3.554,-6.647 1.009,-1.926 2.32,-1.6 3.157,-0.132 0.689,1.207 1.086,2.814 0.98,4.195 -0.268,3.503 -0.992,6.968 -1.313,10.469 -0.096,1.045 0.188,2.549 0.892,3.177 5.845,5.219 11.827,10.284 17.778,15.384 0.292,0.25 0.68,0.388 1.65,0.924 1.8,-2.924 3.518,-5.835 5.366,-8.661 0.752,-1.149 2.077,-1.981 2.624,-3.191 0.714,-1.581 0.674,-3.503 1.388,-5.084 C -6.626,13.507 -4.77,10.225 -3.112,6.85 -2.029,4.644 -1.074,2.375 0,0" /></g></g></g></g></svg>